/* XPM */
static char *closed_door_overlay1689851938[] = {
/* columns rows colors chars-per-pixel */
"64 64 135 2 ",
"   c #0F1A1B",
".  c #141412",
"X  c #1A1514",
"o  c #141817",
"O  c #1C1815",
"+  c #10191A",
"@  c #1D1D1D",
"#  c #231716",
"$  c #221D17",
"%  c #241D19",
"&  c #291A19",
"*  c #1F221E",
"=  c #24241F",
"-  c #2B211A",
";  c #30221E",
":  c #1E1D25",
">  c #1F1F29",
",  c #221E25",
"<  c #2B1F20",
"1  c #201F28",
"2  c #162426",
"3  c #1B2222",
"4  c #1F2729",
"5  c #252025",
"6  c #2A2223",
"7  c #262B27",
"8  c #24232C",
"9  c #2B262B",
"0  c #242B2D",
"q  c #2C2C2B",
"w  c #332520",
"e  c #362921",
"r  c #3B2B22",
"t  c #302628",
"y  c #332A2B",
"u  c #382D2E",
"i  c #262731",
"p  c #232E32",
"a  c #2D2A33",
"s  c #2D2E39",
"d  c #322E35",
"f  c #392E30",
"g  c #263236",
"h  c #293337",
"j  c #343335",
"k  c #3D3334",
"l  c #34343B",
"z  c #3C363E",
"x  c #35383A",
"c  c #3C393B",
"v  c #412E23",
"b  c #423224",
"n  c #4A3727",
"m  c #4F3927",
"M  c #483929",
"N  c #563D25",
"B  c #523D2A",
"V  c #5A3E28",
"C  c #5D4129",
"Z  c #45433D",
"A  c #67472B",
"S  c #6E4B2C",
"D  c #2D3E45",
"F  c #343642",
"G  c #343A43",
"H  c #3D3C41",
"J  c #3B3D4A",
"K  c #423B43",
"L  c #433F49",
"P  c #314045",
"I  c #304148",
"U  c #3D434C",
"Y  c #3F4350",
"T  c #374E58",
"R  c #3A4F59",
"E  c #3D515A",
"W  c #3D5661",
"Q  c #48444D",
"!  c #4F4A4F",
"~  c #545148",
"^  c #444651",
"/  c #484651",
"(  c #454957",
")  c #4B4A55",
"_  c #474B58",
"`  c #4D4E5A",
"'  c #4C515D",
"]  c #50505C",
"[  c #4E5463",
"{  c #425A66",
"}  c #525563",
"|  c #535866",
" . c #5A5B67",
".. c #565B6B",
"X. c #595E6D",
"o. c #43616F",
"O. c #49606A",
"+. c #59606F",
"@. c #436472",
"#. c #496775",
"$. c #4D6A77",
"%. c #596070",
"&. c #61626E",
"*. c #626774",
"=. c #696C77",
"-. c #626A7A",
";. c #4A6F80",
":. c #4E7182",
">. c #517383",
",. c #597986",
"<. c #537B8D",
"1. c #537F93",
"2. c #6C7483",
"3. c #6F7888",
"4. c #707582",
"5. c #727B8B",
"6. c #5A8598",
"7. c #7B8495",
"8. c #7F8999",
"9. c #5C8EA5",
"0. c #6190A6",
"q. c #6C9AAE",
"w. c #679CB3",
"e. c #71A1B5",
"r. c #78ACC3",
"t. c #7BB2CA",
"y. c #7EB8D1",
"u. c #828B9C",
"i. c #848FA0",
"p. c #8791A1",
"a. c #8A95A5",
"s. c #8D98A9",
"d. c #929DAE",
"f. c #94A0B1",
"g. c #8AC6E0",
/* pixels */
"  = C S S C ; b A S S S S S S S S S S S S S S S S S S S S S S S S S S S S S S S S S S S S S S S S S S S S S S S S S S A v v C S ",
"  = N S S A b b V S S S S S S S S S S S S S S S S S S S S S S S S S S S S S S S S S S S S S S S S S S S S S S S S S S C v v C S ",
"  = N S S C v v C S S S S S S S S S S S S S S S S S S S S S S S S S S S S S S S S S S S S S S S S S S S S S S S S S S C v v C S ",
"  = n C C N v v m N N N N N N N N N N N N N N N N N N N N N N N N N N N N N N N N N N N N N N N N N N N N N N N N N N N r v N C ",
"  * e b r r ; ; - - - $ - - - - % - - - - - & & - - - $ - - $ - - - - - - - - - % - - - - - & & - - $ - - - - $ - - - - - r v v ",
"  * e r b r ; $ X . . . . . . . . . . . . . X . . . . . . . . . . . . . X . . . . . . . . . . . . X . . . . . . . . . . $ - e r ",
"2 7 n C A n - X . . . . . . . . . . . . . . . . . . . . . . . . . . . . . . . . . . . . . . . . . . . . . . . . . . . . X $ v n ",
"2 q C S S N - . . . . X X X X X X X . . . . X X X X X X X X . X . . . X X X X . . X X X X . . . X X . X . X X X . . X X X $ v N ",
"2 7 C S S N - . . . # # # # # # # X X . # # # # # # # # # # # O . . $ # # # # # # # # # # # X . # # # # # # # # $ # # # X $ b N ",
"2 7 C C A n - . . X # & # & & # & # X X # # # & & & & # # & & # . X # $ # & # & & & & # & # X X # # & # & & & & & $ & # X # b N ",
"2 7 M C C b - . . X # # # & & & & # X X # & & & # & & & & # & # X X # $ & & & & & & & & & # X X # # & & & # & & # & & # X $ b N ",
"2 7 M C C b O . . X # # & & & & % # X X # & & & & & & & & & & & X # # & & & & & & & & & # # X X & & & & & & & & & & & # X * r C ",
"2 7 C A A N - . . X # & & & & ; w & O O & ; ; ; ; ; ; ; ; ; ; - X X & w ; ; ; ; & ; ; ; & # X X & ; ; ; - - w - ; ; ; = X - r C ",
"2 7 Z A A m - . . X # & # & ; w w & X O & w w w w w w w w w w & $ # - w w w w w ; ; ; & & # X X & e w w e e e w ; ; ; - X $ r C ",
"2 7 C C C n $ . . X # & & & ; ; & & X , u f u t < t ; ; t < < , $ % 6 w 6 5 6 6 ; < , , # # X X & w w w e ; ; ; ; r e - . * r C ",
"2 2 Z ~ ~ Z q 4 0 g k r & & ; ; & & X 1 F M K d 8 , ; ; , 1 1 1 % % 6 - 5 , , 1 , , , , < # X X 6 w w w e ; r r ; ; - - O * r C ",
"+ p @.6.,.#.T T @.;.;.{ d & ; w ; - O 9 c )  . .` L a < 1 a ^ ` ` ( d < 1 8 J ` ' _ F > , # X o & w w w w w w w w w w - @ $ b B ",
". g ;.9.9.6.o.O.1.9.9.;.l & ; ; - - O 6 z &.u.a.p.*.l 1 > J 2.i.p.5.L , 1 s *.p.p.8.` > % # X O - w w w w w w w w w w & O $ b B ",
". g $.9.6.6.o.o.1.9.9.:.l & ; ; & & X 9 M *.a.s.i.%.J s F [ 7.s.i.3.) a a F 4.d.u.2.^ > , # X O - w w w w w w w w w w 6 O # b B ",
". g $.9.9.6.o.o.6.9.9.:.l & ; ; - & X 9 H *.a.u.2.} L L _ *.i.a.5.%.L F K L 5.s.4.) l > & # X O 6 w w w w w w w w w w - O = Z ~ ",
". g $.9.9.6.@.@.6.9.9.:.k - ; ; ; & X , l &.a.u.%.| ` ` ..>.5.7.-...` L L } 2.5.X.J a > & # X O - w w w w w w w w w w - O 0 O.,.",
"+ p o.>.$.@.T T @.$.;.W y - ; ; e & O , 8 ..i.8.-...| ..X.%.2.%.%.%.....| ..*.*.] M a > , & X O - w w w w w w w w w w - O g $.9.",
"+ * x Z c x 4 4 0 g g 0 @ O - ; w - X @ > ` 5.5.*.%.%.%.X.%.%.%.%.%.%.%.X.X...} L H a > 5 & X O & w w w w w w w w w e - X g :.9.",
"  + = r r - * o . . . X X $ ; ; w - O @ > ^ *.-.%.%.%.X.%.%.%.%.%.%.%.%.X...` L L H a > , & O X - e w w w w w w w w ; 6 3 I 6.w.",
"  * r M M r $ . . . $ $ # & ; ; w - & % , l _ [ +.+.+.%.%...%.%.%.%.%.%.| } L K K l 9 , < & X O - w w w ; ; e ; w w e q G O.q.y.",
"  * r C B b $ . . . O $ & & ; ; w w & & 6 9 s L ..+.+.%.%.%.%.%.X.%.%...` L K K d 8 6 < & # X O - w w w ; y x c k j c U { <.r.g.",
"  * r C B b $ . . X # $ & & ; ; w w & < w 6 , l _ ....%.%.%...%.%.%.| } L K K l q , 6 ; & & # & 6 w w w r c O.#.E E $.:.<.0.t.g.",
"  = r Z B b $ . . X # & & ; ; ; w & & & & w 6 y F Y [ %.%.%.%.%.%.| ` L L K d 8 9 6 w ; & & & & ; w w e - Z :.1.@.o.6.9.9.w.y.g.",
"  * r C Z r $ . . X # # & & ; r w - O O - w w 6 > F [ +.+.%.%.%.X...) L K K i , 6 ; w w ; & & & ; w w w w U $.6.o.o.6.9.9.w.y.g.",
"  * e C N r $ . . X # & & & ; ; w - # @ - w w 6 > F [ %.%.%.%.%.X... .] L K a , 6 w w ; ; ; & & ; w w w ; Z ,.<.W T @.$.;.6.t.g.",
"  * b C C b * . . X # # & & ; ; w & & & w w w 6 1 J [ +.%.%.%.%.X.X.X.} L F a 1 6 w w ; & & & & ; w w w e P :.;.D 2 g g g E e.g.",
"+ * b C C r * . . X # # # & ; ; w w & & ; w w y d L } %.+.%.%.%.%...} L L K i , 6 w w ; & & & & ; w w w ; U >.;.g . . . o P q.g.",
". $ b B B b O . X X # # & & ; w w ; & & ; w e k Q [ ..%.%.%.%.%.%...L L L K d 8 t ; ; ; & & & & ; w w w ; Z >.:.g . + . . P q.g.",
". $ b B B b = . . X # & & & ; w w w & & ; y f ! =.=.%.%.%.%.%.%.X...[ ` L K F a a , t ; & & & & ; w w w ; U >.:.D 4 p g g W e.g.",
". O b B B b % . . X # # # & ; w w ; & & ; u k X.p.7.-.%.%...%...%.X.X.| L K K K a > < w ; ; & & ; w w w w H >.1.W T @.$.$.6.t.g.",
". = b B B b $ . . X # & & & ; w w ; & & ; t a ) 2.2.%.%.%...` ) ) ) L ` L K K v a > < w ; & & & ; w w w w K >.1.o.o.1.9.9.w.y.g.",
". $ b B B b $ . . X # # & & & w w ; & & < 9 i J ..%.%.%.%.[ / K K K K K L K K F t 8 < ; & & & & ; w w w w K >.1.@.{ 6.9.9.w.y.g.",
". $ b B B b % . . X # # & & w w w ; & & < H | X...%.%.X.+.%.[ ` ` ` ` ` ] ` L K F a 9 , < & & & ; w w w ; k { #.E R @.:.1.9.t.g.",
". - b B B b # . . X # & & & ; w w ; & , > } i.8.-.%.%.%.%.%.%.%.&.%.%.%.%.X.L L K F a > < ; & & ; w w w w u k z d q j J E <.r.g.",
". $ b B B v & . . X # & & & ; w w < & < > ..p.a.7.7.5.2.%.%.%.%.%.%.%.%.%.&.L K K K a > < ; & & ; w w w w w w ; & & & 6 D o.w.y.",
". O b C M b = . X X # & & & ; w w ; & < > } i.f.f.d.d.8.%.%.%.%.%.%.%.%.X...L K K K a 1 < ; & & - w w w w w e ; & & & % , I 1.w.",
". = Z ~ ~ Z q 4 p h l a & & ; w w ; & # > ( 3.7.8.8.8.3.-.%.%.%.%...[ ` ] ` L L K K a 1 < ; & < w w w w w w w ; & & & & X g $.9.",
". 0 O.<.,.#.R T @.;.;.{ j & ; w w ; & , 1 J ..%.%.%.%.%.%.%.%.%.%.} L L K K K K K K a 1 , t & & ; w w w w w w ; ; ; ; & O g :.9.",
". g $.9.9.6.o.o.1.9.9.;.l & ; w w ; & < 1 s J ^ Y Y ^ ^ Y Y Y Y L L F F d d a F d d 8 1 ; ; & < ; w w w w w w w ; w w - O p W :.",
"o g ;.9.9.<.o.o.6.9.9.;.z & ; w ; ; & , 1 8 i i i i i i i 0 i i i i 8 8 8 8 8 8 8 > 8 , < ; & & ; w w w w w w w w w ; - O 3 j U ",
"o g ;.9.9.6.o.o.1.9.9.;.l & ; w w ; & < , 5 5 , 5 , 5 5 , 5 5 5 : > , , , , 8 < , , , 8 < ; & & ; w w w w w w w w w e - O O ; ; ",
". g :.9.9.6.o.o.1.9.9.:.l & ; ; w ; & & w w w w w w w w w w 6 & X X < w w w w w w w w w t ; & & ; w w w w w w w w w e = O O b n ",
". 0 W :.:.@.T T @.:.:.W q & ; w w ; & & ; w w w w w w w w ; w & X X < ; w w w w w w w w w ; & & ; w w w w w w w w w ; - O - r C ",
". * h c Z x 7 2 0 g g 7 @ # - ; ; ; ; - ; ; e e ; w w w w ; & % X O - w w w w w w w w w w ; & & ; w w w w w w w w w w - O % b B ",
". O ; r r - * . . . X X . O - e ; ; & & ; ; ; e e w w w w ; & & X O 6 w w w w w w w w w w - & & & w w w w w w w w w w < X % b B ",
". * r m M r $ . . . O # # & - e ; ; & & ; ; r ; w w w w w w w - O O & w w w w w w w w w w - O O - w w w w w w w w w w - X = b B ",
". = r C C r $ . . . $ & & & ; w ; - & & ; ; ; r w w w w w w - & X O - w w w w w w w w w w - O O - w w w w w w w w w w & O % b B ",
". $ r C C q = . . X # & & & ; w ; ; $ $ ; ; ; ; w w w w w ; & # X O - w w w w w w w w w e - O O 6 w w w w w w w w w e - O % r C ",
". $ r C C r $ . . . # & # & ; w ; - O O - ; ; - ; ; ; ; ; ; & # X X - w w w w w w w w w ; - O O & ; ; ; w - w - ; w - & X $ r C ",
". - r C C M * . . X # & & & ; w ; - X X - - - & & & & & & & & # . O - w w w w w w w w w ; - O . & & & & & & & & & & & $ . * r C ",
". O r m r r = . . . O # # & - & - $ X . # # # # # # # # # # # # . X & 6 - 6 - - - & 6 - - $ O . # # # # & # # # # & # # O = r M ",
". $ ; ; v ; ; - X . X X X X X X X X . . . X X X . X . . . . X . . . . O O . O O O O O O O . . . . . X . X X X X . X . O % - r r ",
". - ; v b b ; ; ; % - & - - - - - - - - - - $ - - $ - - $ - - - - - - $ - O * - @ - $ $ * - - $ $ - % % @ % % & % % % - ; w e r ",
". $ n V A N v ; m N N N N N N N N N N N N N N N N N b b N N r b N m b b r r r b b b r b v b b b b b b b b b b b b b b r e e b n ",
". - N S S C v b C S S S S S S S S S S S S S S S S A C C A A C C A A C B C M C C B B B B B B B B B B B B B B B B B B B n r r n B ",
". - N S S A ; v C S S S S S S S S S S A S S S S S A C C A A C C A A Z C C C C C B B B B B B B B B B B B B B B B B B B n e r n B ",
". $ N C C N v v N C C A C C C C C A C A C A C A C N m m C C m m N N n C k M r r n M n n n n n M n n n n n n n n n n n n e r b n ",
". O ; v n v ; ; v v n v v n b b n b b n ; b b b b b r r b b r b v v r r r r r r r r r r r e r r r r r e e r r e e r r e w w e r ",
". $ - ; ; v ; ; ; ; ; ; ; ; ; - ; ; ; ; ; ; ; ; ; ; ; ; ; ; ; ; ; ; ; e ; = e e w w w w w w w w w w w w w w e w w w w w w w w e "
};
