/* XPM */
static char *closed_door1689851938[] = {
/* columns rows colors chars-per-pixel */
"64 64 177 2 ",
"   c #0F1A1B",
".  c #141412",
"X  c #151412",
"o  c #151512",
"O  c #171413",
"+  c #121514",
"@  c #191513",
"#  c #191714",
"$  c #1B1715",
"%  c #1F1615",
"&  c #141817",
"*  c #1B1815",
"=  c #1D1916",
"-  c #1F1A16",
";  c #101818",
":  c #101C1E",
">  c #1B1F1D",
",  c gray11",
"<  c #1E1E1D",
"1  c #211716",
"2  c #231716",
"3  c #241716",
"4  c #211C17",
"5  c #261F17",
"6  c #271A18",
"7  c #251A1B",
"8  c #221F19",
"9  c #251D19",
"0  c #261D1A",
"q  c #281818",
"w  c #2A1A19",
"e  c #2A1B1A",
"r  c #291E1B",
"t  c #2C1D1B",
"y  c #2E1F1C",
"u  c #1D211E",
"i  c #1D211F",
"p  c #1F221E",
"a  c #23231E",
"s  c #26261F",
"d  c #282018",
"f  c #2A2118",
"g  c #2C221A",
"h  c #2B201C",
"j  c #2F211D",
"k  c #2F231E",
"l  c #30211E",
"z  c #30241E",
"x  c #31251E",
"c  c #32241F",
"v  c #36271E",
"b  c #2B1F20",
"n  c #152021",
"m  c #142224",
"M  c #162527",
"N  c #1B2222",
"B  c #1F2729",
"V  c #202021",
"C  c #232423",
"Z  c #2D2421",
"A  c #2F2620",
"S  c #2A2224",
"D  c #272A25",
"F  c #262B27",
"G  c #252C2B",
"H  c #222B2D",
"J  c #232B2E",
"K  c #252D2F",
"L  c #2A2D28",
"P  c #2C2E28",
"I  c #2E2A2D",
"U  c #2B2F2D",
"Y  c #332520",
"T  c #352A21",
"R  c #382921",
"E  c #3A2B22",
"W  c #3C2B22",
"Q  c #3E2C22",
"!  c #3E2F23",
"~  c #3B2F24",
"^  c #352B28",
"/  c #222D30",
"(  c #232E32",
")  c #2C2D30",
"_  c #312E32",
"`  c #253033",
"'  c #263236",
"]  c #293337",
"[  c #2E383E",
"{  c #373433",
"}  c #323136",
"|  c #323537",
" . c #31343A",
".. c #35353B",
"X. c #35383A",
"o. c #3A3838",
"O. c #39393B",
"+. c #3B3B3C",
"@. c #402D22",
"#. c #412E23",
"$. c #423224",
"%. c #423324",
"&. c #443225",
"*. c #413426",
"=. c #473524",
"-. c #4C3623",
";. c #4B3725",
":. c #4A3727",
">. c #4E3724",
",. c #4C3927",
"<. c #4F3927",
"1. c #483929",
"2. c #523A25",
"3. c #543A26",
"4. c #573D25",
"5. c #563E27",
"6. c #523D2A",
"7. c #523E2A",
"8. c #5A3E28",
"9. c #58412A",
"0. c #5F4129",
"q. c #44413B",
"w. c #44453F",
"e. c #46453F",
"r. c #67472B",
"t. c #6E4B2C",
"y. c #2D3E45",
"u. c #313B40",
"i. c #3D3F41",
"p. c #314045",
"a. c #304148",
"s. c #384048",
"d. c #3E474C",
"f. c #374E58",
"g. c #394F59",
"h. c #3C4F59",
"j. c #3B5059",
"k. c #3F525B",
"l. c #3B5561",
"z. c #3F5662",
"x. c #545148",
"c. c #415964",
"v. c #405965",
"b. c #425B67",
"n. c #455A67",
"m. c #425C67",
"M. c #43616F",
"N. c #48616A",
"B. c #436472",
"V. c #496775",
"C. c #4B6876",
"Z. c #4F6C77",
"A. c #4A6F80",
"S. c #4B6F80",
"D. c #4D7081",
"F. c #4F7081",
"G. c #4C7385",
"H. c #517383",
"J. c #507486",
"K. c #527687",
"L. c #597986",
"P. c #547A8B",
"I. c #517B8E",
"U. c #537C8F",
"Y. c #537F93",
"T. c #557D90",
"R. c #5A8598",
"E. c #5C8EA5",
"W. c #6190A6",
"Q. c #6B9AAF",
"!. c #679CB3",
"~. c #71A1B5",
"^. c #78ACC3",
"/. c #7AB0C8",
"(. c #7CB4CC",
"). c #7EB8D1",
"_. c #8AC6E0",
/* pixels */
"  s 5.t.t.0.#.#.0.t.t.t.t.t.t.t.t.t.t.t.t.t.t.t.t.t.t.t.t.t.t.t.t.t.t.t.t.t.t.t.t.t.t.t.t.t.t.t.t.t.t.t.t.t.t.t.t.t.t.8.#.#.r.r.",
"  s 5.t.t.0.#.#.0.t.t.t.t.t.t.t.t.t.t.t.t.t.t.t.t.t.t.t.t.t.t.t.t.t.t.t.t.t.t.t.t.t.t.t.t.t.t.t.t.t.t.t.t.t.t.t.t.t.t.4.#.#.r.t.",
"  s 5.t.t.0.#.#.0.t.t.t.t.t.t.t.t.t.t.t.t.t.t.t.t.t.t.t.t.t.t.t.t.t.t.t.t.t.t.t.t.t.t.t.t.t.t.t.t.t.t.t.t.t.t.t.t.t.t.r.#.#.8.t.",
"  a ;.0.0.3.Q Q >.5.5.5.4.4.4.4.5.5.5.5.4.4.4.4.4.4.4.4.4.4.4.4.4.4.4.4.4.4.4.4.4.5.5.5.4.4.4.4.4.4.4.4.4.4.4.5.4.4.4.-.v #.3.8.",
"  > T #.#.Q v z f f f f 5 f f f q f f f f f f q f f f f f f f f f f f f f f f f f f f f f f f q 5 f f f f f f f f f f f v v Q %.",
": i T #.#.Q z 9 @ . . . X X X X . . O o o o X o . X . . . . o X . . . o o . . . . . . . X X X X X X X X . . . . o X X * q l Y R ",
"m D ,.0.0.-.g @ X X X X . X X X . . o o o o X X . . . . . . . X . . X X X X . . . . X X X o X X X X X X . . . . o . X X = q $.;.",
"M P 9.t.t.5.f X X X X @ @ @ @ @ # O . o o O * X @ @ @ @ @ @ @ X X X X @ @ @ @ X @ @ @ # # X X X X @ @ @ @ @ @ @ O X # X + 8 $.7.",
"M L 9.t.t.5.f . o X % 2 2 2 2 2 1 1 X @ 1 3 3 2 2 2 2 3 2 3 3 = X X 1 3 3 3 2 2 2 2 2 2 3 1 X # % 3 3 7 1 3 3 3 3 2 2 = @ 8 %.7.",
"M L 7.r.r.3.5 . X # 2 q q q q q q 3 O @ 3 q q q q q q q q q q 2 @ @ 3 3 q q q q q q q q q 3 # X 1 q q q q q q q q q q 2 X 8 %.6.",
"M G 1.8.5.=.5 . X @ 2 q q q q q q 3 @ & 1 q q q q q q q q q q 3 # @ 3 q q q q e q q q q q 3 X * 3 q q q q q 7 q q e q 3 X 9 %.6.",
"M D 1.9.9.=.5 . o X 2 q q q e q t q X * q q e e e e e e e q e q X # q q e t q q e e e q q 3 X @ q q q t w q t q q e q e # 9 #.6.",
"M P 7.r.r.3.5 . X O 3 q q t g l Z q % O q l l l A k k l l l l q 1 # t k k y Y y Z Y l t w 3 @ * f Y k Z k l l l y k k t 1 8 $.7.",
"M L 7.r.r.3.f . X # 3 q q q l Y k f * * k Y Y Y Y Y Y Y Y Y Y l 2 = h Y Y Y Y Y Y b l l w 3 X * t Y Y Y Y Y Y Y Y Y Y h @ 8 $.7.",
"M C 1.8.9.=.7 . o # 3 q w w l l e e & * y Y Y Y Y Y Y Y Y Y Y l 3 q l Y Y Y Y Y Y l l w w 3 # % y Y Y Y Y Y Y Y Y Y Y h # 8 $.7.",
"n B x.x.x.w.U B ( ]  ._ b w l l e q @ * t Y Y Y Y Y Y Y Y Y Y l e f k Y Y Y Y Y Y l w w 3 3 O 1 r Y Y Y Y Y Y Y Y Y Y e % 5 $.7.",
"; ` B.I.L.V.g.f.M.C.G.b.) t l Y y t = # y Y Y Y Y Y Y Y Y Y Y l y w l Y Y Y Y Y Y v l l q 3 # = y Y Y Y Y Y Y Y Y Y Y h * 2 *.7.",
"o ' Z.E.E.R.m.B.R.E.E.D...e l Y k t # = e Y Y Y Y Y Y Y Y Y Y l q w l Y Y Y Y Y Y l l g e 2 @ # r Y Y Y Y Y Y Y Y Y Y h * a %.7.",
"o ' A.E.E.I.B.B.T.E.E.G...e Y l y q O # k Y Y Y Y Y Y Y Y Y Y l e e l z Y Y Y Y Y k t e q 3 @ # t Y Y Y Y Y Y Y Y Y Y h @ 5 %.7.",
"o ' Z.E.E.R.M.M.T.E.E.G...e Z l q 7 # # e Y Y Y Y Y Y Y Y Y Y l e e k Y Y Y Y Y Y l t q q 3 @ * h Y Y Y Y Y Y Y Y Y Y h # C q.x.",
"X ' G.W.E.R.v.B.Y.E.E.D...q l Y Z r * * h Y Y Y Y Y Y Y Y Y Y l e e Y Y Y Y Y Y Y l l l e 2 # = h Y Y Y Y Y Y Y Y Y Y h % H N.L.",
"o K m.Z.S.V.f.f.B.D.A.l.I 7 k Y Y t * = h Y Y Y Y Y Y Y Y Y Y l e e y Y Y Y Y Y Y Y v l e 7 # # h Y Y Y Y Y Y Y Y Y Y h * ' G.E.",
"  N | s.s...H B ( ' ' H < = f Y Y k = * h Y Y Y Y Y Y Y Y Y Y l e e Y Y Y Y Y Y Y Y Y Y A e @ * h Y Y Y Y Y Y Y Y Y Y t # ' Z.E.",
"  i z ! v k % X o o O * O 2 l Y Y e - - h Y Y Y Y Y Y Y Y Y Y l e e y Y Y Y Y Y Y Y Y l k e % * h Y Y Y Y Y Y Y Y Y Y A C a.Y.!.",
"  i ~ =.;.R 2 X . X 1 1 3 q l T Y k 3 7 l v Y Y Y Y Y Y Y Y Y l e e l Y Y Y Y Y Y Y Y l y 7 @ * y Y Y Y Y Y Y Y Y Y Y I u.M.Q.).",
"  i *.7.6.%.a . . @ 3 q w w l z Y k e e l Y Y Y Y Y Y Y Y Y Y l e e l Y Y Y Y Y Y Y Y l q 3 1 = y Y Y Y Y ^ o.+.{ | +.d.c.P.^._.",
"  a *.7.6.%.8 o X @ 3 q q w l Y Y g e e l l Y Y Y Y Y Y Y Y Y l e e b Y Y Y Y Y Y Y Y l q 3 3 w k Y Y Y Y o.N.C.k.k.C.K.U.W.(._.",
"  i *.7.7.%.8 X X X 1 q q q l Y Y l 5 e l Y Y Y Y Y Y Y Y Y Y l e e l Y Y Y Y Y Y Y Y l l q q w k Y Y Y Y i.H.Y.M.M.T.E.E.!.)._.",
"  i *.7.7.%.4 X X @ 3 q q q l Y Y y = = g Y Y Y Y Y Y Y Y Y Y b t w l Y Y Y Y Y Y Y Y Y y y q t y Y Y Y Y i.H.Y.z.B.R.E.E.!.)._.",
"; i *.7.7.%.= . X X 3 q t q l Y l k 4 4 y Y Y Y Y Y Y Y Y Y Y y q w l Y Y Y Y Y Y Y Y l Y k t w l Y Y Y Y q.H.I.l.f.B.Z.Z.R.(._.",
"  a *.7.7.%.5 . X @ 3 q q w A Y Y l q 3 k Y Y Y Y Y Y Y Y Y Y c y q l Y Y Y Y Y Y Y Y l q q q w l Y Y Y Y s.G.G.a.M ( ' ' l.~._.",
"; i %.7.7.%.5 . X @ 1 q q q l Y Y l e e Z Y Y Y Y Y Y Y Y Y Y k e e l Y Y Y Y Y Y Y Y Z y q w q l Y Y Y Y +.H.G.' ; . o X p.Q._.",
"X 4 %.6.7.%.9 . O O 3 q q e l Y Y y q t l Y Y Y Y Y Y Y Y Y Y l e e y Y Y Y Y Y Y Y Y l w q q t Y Y Y Y Y i.H.A.' X ; . . u.Q._.",
"X 5 %.6.7.Q a . . O 2 q q q l Y Y Y t t l Y Y Y Y Y Y Y Y Y Y l e e Y Y Y Y Y Y Y Y Y l l w q w y Y Y Y Y i.H.G.y.H / ' ' l.~._.",
". 8 %.6.7.%.9 X . O 3 q q e l Y Y Y y q l Y Y Y Y Y Y Y Y Y Y l e e Y Y Y Y Y Y Y Y Y Y l t w w b Y Y Y Y i.H.I.k.g.B.A.S.R./._.",
". 8 %.7.7.%.1 X O # q q q e l Y Y y q q l Y Y Y Y Y Y Y Y Y Y l e e y Y Y Y Y Y Y Y Y Y g l w w l Y Y Y Y +.H.R.B.z.R.E.E.!.)._.",
". 2 *.7.7.$.8 X . O 1 q q q Y Y Y Z q w l Y Y Y Y Y Y Y Y Y Y l t q l Y Y Y Y Y Y Y Y l e t q e l Y Y Y Y i.K.T.B.b.R.W.E.!.)._.",
". 5 %.7.7.$.8 X . O 3 q q t l Y Y b w w l Y Y Y Y Y Y Y Y Y Y y 7 q y Y Y Y Y Y Y Y Y l k q q e l Y Y Y Y o.n.V.h.h.B.K.T.W.(._.",
". 8 %.6.7.$.8 X X O 3 q q w l Y Y Y y q l Y Y Y Y Y Y Y Y Y Y g = = Z Y Y Y Y Y Y Y Y Y c q e e l Y Y Y Y ^ o.+._ ) } y.z.P.^._.",
". 8 %.6.7.#.9 X X # 1 q q w l Y Y Y e e l Y Y Y Y Y Y Y Y Y A e # = t Y Y Y Y Y Y Y Y Y Y l e e l Y Y Y Y Y Y l w q 2 b [ B.Q.).",
". 1 E <.7.E * o O # q q q e l Y Y y y q Y Y Y Y Y Y Y Y Y k t 7 # @ e Y Y Y Y Y Y Y Y Y Y l e e l Y Y Y Y Y Y k w q q 7 b a.Y.!.",
"X C x.x.x.x.U B ( ] } ) b e l Y Y Y q t y Y Y Y Y Y Y Y Y t e q # 1 k Y Y Y Y Y Y Y Y Y Y l e e l Y Y Y Y Y Y k l w e 3 + ' A.E.",
"X K c.L.L.Z.j.f.B.S.S.n._ e Y Y Y b w w Y Y Y Y Y Y Y Y Y Y l e * * f Y Y Y Y Y Y Y Y Y Y l e e l Y Y Y Y Y Y k l l Y t # ' A.E.",
". ' Z.E.E.U.M.M.Y.E.E.F...e b Y Y y w w y Y Y Y Y Y Y Y Y Y c 9 * * h Y Y Y Y Y Y Y Y Y Y l e e l Y Y Y Y Y Y Y Y Y Y q % / b.H.",
"+ ' Z.E.E.U.M.M.Y.E.E.F...e y Y Y l e e Y Y Y Y Y Y Y Y Y z e 4 O = e Y Y Y Y Y Y Y Y Y Y Y e e l Y Y Y Y Y Y Y Y Y Y h # <  .i.",
". ' G.E.E.R.M.M.Y.E.E.F...e l Y Y l e e y Y Y Y Y Y Y Y Y T e 3 & * k Y Y Y Y Y Y Y Y Y Y b e e l Y Y Y Y Y Y Y Y Y Y e # = l W ",
". ' G.E.E.R.M.M.Y.E.E.S...e Y Y Y l e e l Y Y Y Y Y Y Y Y Y k e = # g Y Y Y Y Y Y Y Y Y Y y q e l Y Y Y Y Y Y Y Y Y Y k # 4 E 1.",
"; B z.D.D.V.f.f.B.S.S.v.) 7 y Y Y l e e l Y Y Y Y Y Y Y Y Y k e # = e Y Y Y Y Y Y Y Y Y Y Y e e l Y Y Y Y Y Y Y Y Y Y f % a $.5.",
"o <  .s.s.o.K C ( ' ' H - # k Y Y Y w t Z Y Y Y Y Y Y Y Y y y q O * h Y Y Y Y Y Y Y Y Y z k e e l Y Y Y Y Y Y Y Y Y Y h * 4 %.7.",
". * v v E l = X X o X @ O 9 y Y z k w w l Y Y Y Y Y Y Y Y k t 7 # * h Y Y Y Y Y Y Y Y Y Y l 9 3 k l Y Y Y Y Y Y Y Y Y e * a %.7.",
"o 4 v ;.;.R 1 . o X % 3 9 q k Y Y l e e l Y Y Y Y Y Y Y Y Y k t * * h Y Y Y Y Y Y Y Y Y Y l = 2 l Y Y Y Y Y Y Y Y Y Y k X 9 %.6.",
"o a %.9.7.$.8 X o # 2 7 q q y Y z k e q y Y Y Y Y Y Y Y Y Y k e # * h Y Y Y Y Y Y Y Y Y Y g * * k Y Y Y Y Y Y Y Y Y Y e 1 8 %.6.",
". 5 %.7.7.%.8 X X X 3 q 3 w A Y Y k = * l Y Y z Y Y Y Y Y A t 7 # # t Y Y Y Y Y Y Y Y Y Y h * * e Y Y Y Y Y v Y Y Y Y f # 8 $.7.",
"X 4 %.7.6.%.8 . X # 3 q q q Y Y Y h # % e l l g l l l Y k y q 2 # % k Y Y Y Y Y Y Y Y Y Y h * * e k Y A l b l Y y Z Y e # 8 $.7.",
"X d ! 7.6.$.8 X X # 1 q q q b Y Y t # # 9 e e e q q y q q q q 3 # # t Y Y Y Y Y Y Y Y Y z l 1 X 9 q f q q q w q q e q 8 @ 9 $.7.",
"o = ! :.-.Q 8 # X X 1 3 3 9 q l g 9 # X 2 2 2 3 3 3 1 3 3 3 3 1 @ X p h h h h h h h h y e 7 # X % 2 3 2 3 3 7 3 3 3 2 2 % 7 ! >.",
"X * k Q Q Y l 9 # X X # O @ 1 @ @ # X X # @ @ @ @ @ @ X & * O O X @ . @ = # = # % * * # # # X X O O O X # O O O # # # % 7 Y T E ",
"o 2 v #.#.$.v l g f f f t f f f f e f f f f f f f f 9 5 9 f 9 r f 9 8 5 8 9 5 9 - 8 a 9 8 8 8 5 5 8 9 8 5 9 9 8 9 7 8 9 k l E E ",
"o d >.8.0.3.Q R >.3.8.4.4.4.5.4.8.4.2.3.4.4.4.4.5.2.;.=.3.3.:.&.2.3.;.%.$.$.$.$.$.$.$.$.$.$.$.$.%.%.$.$.$.$.$.$.$.$.$.~ Y T $.:.",
"o f 5.t.t.0.#.#.r.r.t.t.t.t.t.t.t.t.t.t.t.t.t.t.t.r.8.9.r.r.9.5.r.r.9.7.7.7.7.7.6.6.6.6.7.7.7.6.6.6.6.6.6.7.6.6.7.7.7.>.Q E :.7.",
"o d 5.t.t.8.#.#.0.t.t.t.t.t.t.t.t.t.t.t.t.t.t.r.t.r.9.9.r.r.8.8.r.r.8.7.7.,.7.7.6.6.6.6.6.6.6.6.6.6.6.6.6.6.6.6.7.7.7.:.R Q 1.7.",
"o 9 -.0.r.3.Q Q 3.0.0.0.r.4.r.9.8.r.8.r.8.8.r.r.0.8.,.2.8.8.,.2.8.8.,.1.;.;.:.:.:.:.:.:.:.:.:.1.>.;.:.:.:.1.:.:.:.:.:.$.T R &.;.",
"X * v ! #.#.Y Y W #.#.#.#.#.#.#.#.#.#.#.#.#.#.#.#.#.R Q #.#.W W ! #.W R W W R W R W ~ R W W W R R W R W W W W W R W #.R Y Y R R ",
"o 2 f k Y Y Y Y Y Y Y Y v l v l Y Y Y Y Y Y Y Y v Y Y l Y Y Y Y Y Y Y Y Y Y Y Y Y Y Y Y Y Y Y Y Y Y Y Y Y Y Y Y Y Y Y Y Y Y Y Y "
};
