/* XPM */
static char *_23763ca506247bac490c2c475645b86Cm6gODeBAfvpthP2[] = {
/* columns rows colors chars-per-pixel */
"64 64 149 2 ",
"   c #1B171A",
".  c #17181A",
"X  c #191A1C",
"o  c #2C161F",
"O  c #1B1E20",
"+  c #2E1620",
"@  c #381321",
"#  c #1D2223",
"$  c #1B282A",
"%  c #202425",
"&  c #2C2E30",
"*  c #451223",
"=  c #4D1126",
"-  c #680E2A",
";  c #76092B",
":  c #7A0A2D",
">  c #7C0E31",
",  c #7E1133",
"<  c #7F1F3F",
"1  c #72223C",
"2  c #3C3E42",
"3  c #60384F",
"4  c #2F4046",
"5  c #2B4348",
"6  c #3F6067",
"7  c #404245",
"8  c #49494E",
"9  c #56555A",
"0  c #4D5A67",
"q  c #605F65",
"w  c #406067",
"e  c #41636A",
"r  c #456B73",
"t  c #496971",
"y  c #456F78",
"u  c #457079",
"i  c #4A7179",
"p  c #51757C",
"a  c #5A737C",
"s  c #55787F",
"d  c #686469",
"f  c #79757B",
"g  c #801637",
"h  c #811738",
"j  c #851C3C",
"k  c #881E3F",
"l  c #822342",
"z  c #8A2645",
"x  c #872F4C",
"c  c #923451",
"v  c #91415C",
"b  c #994861",
"n  c #9A4F69",
"m  c #96546B",
"M  c #9A5B72",
"N  c #AA5F77",
"B  c #B56A7F",
"V  c #477B85",
"C  c #4B7C87",
"Z  c #477F89",
"A  c #5A7C83",
"S  c #7F7A82",
"D  c #927283",
"F  c #B26D82",
"G  c #B2798C",
"H  c #47828D",
"J  c #4C828D",
"K  c #52848E",
"L  c #458693",
"P  c #498692",
"I  c #4A8A96",
"U  c #4A8D9B",
"Y  c #578C9A",
"T  c #4A919F",
"R  c #608289",
"E  c #698A91",
"W  c #69929B",
"Q  c #79979D",
"!  c #75989F",
"~  c #4B96A5",
"^  c #4E98A7",
"/  c #5897A4",
"(  c #5399A7",
")  c #5C99A5",
"_  c #569BA9",
"`  c #5A9DAA",
"'  c #699BA5",
"]  c #679DA8",
"[  c #65A1AD",
"{  c #6CA3AE",
"}  c #73A5AF",
"|  c #7BA6AF",
" . c #6CA5B0",
".. c #74A7B1",
"X. c #7CA7B0",
"o. c #75A9B3",
"O. c #7BABB4",
"+. c #988895",
"@. c #9E959F",
"#. c #BB92A0",
"$. c #85A1A7",
"%. c #93A8AD",
"&. c #82AEB6",
"*. c #8AACB3",
"=. c #85AFB8",
"-. c #8DB3BA",
";. c #93B0B6",
":. c #9BB2B6",
">. c #95B6BD",
",. c #99B3B9",
"<. c #9AB8BE",
"1. c #A1A7AF",
"2. c #BBA3AE",
"3. c #A1AAB3",
"4. c #B1A9B3",
"5. c #A3B6BC",
"6. c #A0B9BE",
"7. c #D3AAB4",
"8. c #D7AEB9",
"9. c #CBB5BE",
"0. c #DBB1BA",
"q. c #9FBAC0",
"w. c #A5BDC2",
"e. c #ABBDC2",
"r. c #B2BDC3",
"t. c #BCBEC7",
"y. c #C7BDC7",
"u. c #C9BDC4",
"i. c #D7BDC7",
"p. c #DDB8C2",
"a. c #E6B8C1",
"s. c #ABC0C5",
"d. c #B6C3C9",
"f. c #C1C2CC",
"g. c #CCC4CF",
"h. c #D3C3CD",
"j. c #CEC5D1",
"k. c #C7CAD0",
"l. c #CCCBD3",
"z. c #D1C5D1",
"x. c #D4C8D4",
"c. c #D8CDD7",
"v. c #D6D1D9",
"b. c #DBD3DC",
"n. c #E6CCD3",
"m. c #E2D4DB",
"M. c #E5DDE4",
"N. c #E7E3E6",
"B. c #E8E2E8",
/* pixels */
": : : : : : : : z.z.z.z.z.z.z.z.: : : : : : : : z.z.z.z.z.z.z.z.: : : : : : : : z.z.z.z.z.z.z.z.: : : : : : : : z.z.z.z.z.z.z.z.",
": : : : : : : : z.z.z.z.z.z.z.z.: : : : : : : : z.z.z.z.z.z.z.z.: : : : : : : : z.z.z.z.z.z.z.z.: : : : : : : : z.z.z.z.z.z.z.z.",
": : : : : : : : z.z.z.z.z.z.z.z.: : : : : : : : z.z.z.z.z.z.z.z.: : : : : : : : z.z.z.z.z.z.z.z.: : : : : : : : z.z.z.z.z.z.z.z.",
": : : : : : : : z.z.z.z.z.z.z.z.: : : : : : : : z.z.z.z.z.g.g.j.g : : : : : : : z.z.z.z.z.z.z.z.: : : : : : : : z.z.z.z.z.z.z.z.",
": : : : : : : : z.z.z.z.z.z.z.z.: : : : : : : : z.z.g.j.h.e.s.r.G l j : : : : : z.z.z.z.z.z.z.z.: : : : : : : : z.z.z.z.z.z.z.z.",
": : : : : : : : z.z.z.z.z.z.z.z.: : : : : : : : h.f.w.,.,.,.,.<.e.6.7.l > : : : z.z.z.z.z.z.z.z.: : : : : : : : z.z.z.z.z.z.z.z.",
": : : : : : : : z.z.z.z.z.z.z.z.: : : : : : : , 9.T :.~ A i C [ w.w.w.w.v : : : z.z.z.z.z.z.z.z.: : : : : : : : z.z.z.z.z.z.z.z.",
": : : : : : : : z.z.z.z.z.z.z.z.: : : : : : : M y r p ~ u ! P w.w.e.e.w.w.z : : z.z.z.z.z.z.z.z.: : : : : : : : z.z.z.z.z.z.z.z.",
"z.z.z.z.z.z.z.z.: : : : : : : : z.z.z.z.z.z.h.r r r >.` ~ ~ C w.w.a.a.w.w.p.z.z.> : : : : : : : z.z.z.z.z.z.z.z.: : : : : : : : ",
"z.z.z.z.z.z.z.z.: : : : : : : : z.z.z.z.z.z.h.r r r T ,.) r E w.w.p.p.w.w.w.x.z.: : : : : : : : z.z.z.z.z.z.z.z.: : : : : : : : ",
"z.z.z.z.z.z.z.z.: : : : : : : : z.z.z.z.z.z.s.r r r r r r r _ q.w.w.w.w.e.w.b.z.: : : : : : : : z.z.z.z.z.z.z.z.: : : : : : : : ",
"z.z.z.z.z.z.z.z.: : : : : : : : z.z.z.z.z.z.e.r r r r r r r w.` w.w.e.w.w.w.M.z.: : : : : : : : z.z.z.z.z.z.z.z.: : : : : : : : ",
"z.z.z.z.z.z.z.z.: : : : : : : : z.z.z.z.z.z.s.p y r r y y H w.[ w.w.w.w.w.w.c.z.: : : : : : : : z.z.z.z.z.z.z.z.: : : : : : : : ",
"z.z.z.z.z.z.z.z.: : : : : : : : z.z.z.z.z.z.m.w.~ u y I U ( w.w.w.w.w.w.w.w.x.z.: : : : : : : : z.z.z.z.z.z.z.z.: : : : : : : : ",
"z.z.z.z.z.z.z.z.: : : : : : : : z.z.z.z.z.z.z.s.~ ~ Z Z U P <.q.w.w.w.w.w.u.x.z.: : : : : : : : z.z.z.z.z.z.z.z.: : : : : : : : ",
"z.z.z.z.z.z.z.z.: : : : : : : : z.z.z.z.z.z.z.f.} H H H H r A X.O.>.w.w.e.c.z.z.: : : : : : : : z.z.z.z.z.z.z.z.: : : : : : : : ",
": : : : : : : : z.z.z.z.z.z.z.z.: : : : : : : : r.r r r r r r u P T *.-.F : : : z.z.z.z.z.z.z.z.: : : : : : : : z.z.z.z.z.z.z.z.",
": : : : : : : : z.z.z.z.z.z.z.z.: : : : : : : : j.A r 6 6 6 e r r r r Y > : : : z.z.z.z.z.z.z.z.: : : : : : : : z.z.z.z.z.z.z.z.",
": : : : : : : : z.z.z.z.z.z.z.z.: : : : : : > < j.,.r # $ $ 5 y y y y ,.b j j > z.z.z.z.z.z.z.z.: : : : : : : : z.z.z.z.z.z.z.z.",
": : : : : : : : z.z.z.z.z.z.z.z.: : : : : , n ,.q.r y y U ~ ~ ~ ~ _ _ _ w.w.8.j z.z.z.z.z.z.z.z.: : : : : : : : z.z.z.z.z.z.z.z.",
": : : : : : : : z.z.z.z.z.z.z.z.: : : : : N w._ _ p _ _ _ _ _ _ _ w.w.w.w.w.w.c z.z.z.z.z.z.z.z.: : : : : : : : z.z.z.z.z.z.z.z.",
": : : : : : : : z.z.z.z.z.z.z.z.: : : : : : 3.6.w.:.,.:.,.,.,.6.,.q.;.,.6.,.1.> z.z.z.z.z.z.z.z.: : : : : : : : j.z.z.z.z.z.z.z.",
": : : : : : : : z.z.z.z.z.z.z.z.: : : : : : k +.w.A s r u y V *.p ( p 0 D c : : z.z.z.z.z.z.z.z.: : : : : : : : z.z.z.z.z.z.z.z.",
": : : : : : : : z.z.z.z.z.z.z.z.: : : : : : : : z.z.r.r r r r ^ w.w.5.> : : : : z.z.z.z.z.z.z.z.: : : : : : : : z.z.z.z.z.z.z.z.",
"z.z.z.z.z.z.z.z.: : : : : : : : z.z.z.z.z.z.z.z.: : +.r r r r ` w.w.w.z.z.z.z.z.: : : : : : : : z.z.z.z.z.z.z.z.: : : : : : : : ",
"z.z.z.z.z.z.z.z.: : : : : : : : z.z.z.z.z.z.z.z.: : @.r r r r ] w.w.e.z.z.z.z.z.: : : : : : : : z.z.z.z.z.z.z.z.: : : : : : : : ",
"z.z.z.z.z.z.z.z.: : : : : : : : z.z.z.z.z.z.z.z.: : 1.r r r y w.w.e.w.z.z.z.z.z.: : : : : : : : z.z.z.z.z.z.z.z.: : : : : : : : ",
"z.z.z.z.z.z.z.z.: : : : : : : : z.z.z.z.z.z.z.z.: : w.r y r I w.w.a.w.z.z.z.z.z.: : : : : : : : z.z.z.z.z.z.z.z.: : : : : : : : ",
"z.z.z.z.z.z.z.z.: : : : : : : : z.z.z.z.z.z.z.z.: : <.r P Z } w.w.p.w.x.z.z.z.z.: : : : : : : : z.z.z.z.z.z.z.z.: : : : : : : : ",
"z.z.z.z.z.z.z.z.: : : : : : : : z.z.z.z.z.z.z.z.: > P r y ~ W w.w.w.w.m.z.z.z.z.: : : : : : : : z.z.z.z.z.z.z.z.: : : : : : : : ",
"z.z.z.z.z.z.z.z.: : : : : : : : z.z.z.z.z.z.z.z.: c r r Z ~ [ w.w.w.w.n.z.z.z.z.: : : : : : : : z.z.z.z.z.z.z.z.: : : : : : : : ",
"z.z.z.z.z.z.z.z.: : : : : : : : z.z.z.z.z.z.z.z.: F r r U U [ w.w.w.w.u.z.z.z.z.: : : : : : : : z.z.z.z.z.z.z.z.: : : : : : : : ",
": : : : : : : : z.z.z.z.z.z.z.z.: : : : : : : : z.s.r r U ~ <.w.w.e.w.w.> : : : z.z.z.z.z.z.z.j.: : : : : : : : z.z.z.z.z.z.z.z.",
": : : : : : : : z.z.z.z.z.z.z.z.: : : : : : : : z.:.r r ~ ^  .w.w.w.w.w.c : : : z.z.z.z.z.z.z.z.: : : : : : : : z.z.z.z.z.z.z.z.",
": : : : : : : : z.z.z.z.z.z.z.z.: : : : : : : : h.u t y ~ o. .w.w.e.e.w.7.: : : z.z.z.z.z.z.z.z.: : : : : : : : z.z.z.z.z.z.z.z.",
": : : : : : : : z.z.z.z.z.z.z.z.: : : : : : : : i.T r ~ ~ O.o.w.w.a.e.w.e.h : : z.z.z.z.z.z.z.z.: : : : : : : : z.z.z.z.z.z.z.z.",
": : : : : : : : z.z.z.z.z.z.z.z.: : : : : : , l w.u u _ w.&.w.w.w.p.p.w.w.G k > z.z.z.z.z.z.z.z.: : : : : : : : z.z.z.z.z.z.z.z.",
": : : : : : : : z.z.z.z.z.z.z.z.: : : : : : m ,.<._ _ w.w.q.q.w.w.w.w.w.w.w.0.> z.z.z.z.z.z.z.z.: : : : : : : : z.z.z.z.z.z.z.z.",
": : : : : : : : z.z.z.z.z.z.z.z.: : : : : : a p ~ ,.:.:.,.{ { w.q.w.w.w.w.w.w.z z.z.z.z.z.z.z.z.: : : : : : : : z.z.z.z.z.z.z.z.",
": : : : : : : : z.z.z.z.z.z.z.j.: : : : : : 0.>.~ r u u u ( $.w._ w.w.w.w.w.w.> z.z.z.z.z.z.z.z.: : : : : : : : z.z.z.z.z.z.z.z.",
"z.z.z.z.z.z.z.z.: : : : : : : : z.z.z.z.z.z.s.U r r ~ T T ..>.<.w.w.e.e.w.w.w.x.: : : : : : : : z.z.z.z.z.z.z.z.: : : : : : : : ",
"z.z.z.z.z.z.z.z.: : : : : : : : z.z.z.z.z.v.s.u r u A p p P ~ [ w.w.a.a.w.w.w.p.l : : : : : : : z.z.z.z.z.z.z.z.: : : : : : : : ",
"z.z.z.z.z.z.z.z.: : : : : : : : z.z.z.x.v.s.q.~ i ~ N.7.5.O.K w.w.w.p.p.w.w.w.w.p.j : : : : : : z.z.z.z.z.z.z.z.: : : : : : : : ",
"z.z.z.z.z.z.z.z.: : : : : : : : z.z.g.B.w.q.s._ s.~ r u ;.w.<.<.<.e.6.w.w.w.w.w.w.a.x g : : : : z.z.z.z.z.z.z.z.: : : : : : : : ",
"z.z.z.z.z.z.z.z.: : : : : : : : z.l.s.w.w.w.w.q.,.~ u ~ _ o.( _ ( <.q.q.w.w.w.w.w.w.w.G j : : : z.z.z.z.z.z.z.z.: : : : : : : : ",
"z.z.z.z.z.z.z.z.: : : : : : : : z.d.w.w.w.w.<.=.T T [ ~ =.[ o.-._ ( q.-.w.w.w.w.w.w.w.r.#.j : : z.z.z.z.z.z.z.z.: : : : : : : : ",
"z.z.z.z.z.z.z.z.: : : : : : : , t.6.<.<.<.w.^ ~ y J o.~ ^ ~ ` o.w.w...O.q.w.w.w.w.w.w.w.w.B : : z.z.z.z.z.z.z.z.: : : : : : : : ",
"z.z.z.z.z.z.z.z.: : : : : : : h e.| Q J | O.[ ^ ~ ~ ~ K ` _ { O.<.O._ ....w.w.w.w.w.w.w.w.2.: : z.z.z.z.z.z.z.z.: : : : : : : : ",
": : : : : : : : z.z.z.z.z.z.z.z.%.y y r r s / [ K [ R ,.>.<.q.) [ ] w.w.w.w.w.w.w.w.w.w.w.l.z.z.: : : : : : : : z.z.z.z.z.z.z.z.",
": : : : : : : : z.z.z.z.z.z.z.z.1 r T r r y p <.:.:.<.` w.<.<.R w.w.w.w.w.w.w.w.w.w.,.w.e.j.z.z.: : : : : : : : z.z.z.z.z.z.z.z.",
": : : : : : : : z.z.z.z.z.z.z.g.<.u r r r T :.T r y T ,.:.T ] ,.,.,.:.,.,.,.,.<.w.w.p ,.w.k.z.z.: : : : : : : : z.z.z.z.z.z.z.z.",
": : : : : : : : z.z.z.z.z.z.z.g._ ~ r r r r y i u i u r u u u p u i p p p p p _ w.e.w.w.w.y.z.z.: : : : : : : : z.z.z.z.z.z.z.z.",
": : : : : : : : z.z.z.z.z.z.z.g.<.~ i r r r T ~ ` <._ ` ~ ^ ^ w.` w.w.w.w.w.w.w.w.w.w.w.e.y.z.z.: : : : : : : : z.z.z.z.z.z.z.z.",
": : : : : : : : z.z.z.z.z.z.z.g.U T _ i r r r T <.~ <.<.[ [ | <.q.w.w.w.w.w.w.w.w.w.w.w.,.e.z.z.: : : : : : : : z.z.z.z.z.z.z.z.",
": : : : : : : : z.z.z.z.z.z.z.z.3 e %.L r r r p _ _ _ ~ ~ J H ^ _ w.w.w.w.w.w.w.,.,.%.:.E t.z.z.: : : : : : : : z.z.z.z.z.z.z.z.",
": : : : : : : : z.z.z.z.z.z.z.z.: *   . 6 6 6 %.%.%.%.L L ' ] Y %.%.%.%.%.%.%.%.e t & d g.z.z.j.: : : : : : : : z.z.z.z.z.z.z.z.",
"z.z.z.z.z.z.z.z.: : : : : : : : z.z.z.9 2 % $ #   X     X 4 w X X O O # # # % % o * ; : : : : : z.z.z.z.z.z.z.z.: : : : : : : : ",
"z.z.z.z.z.z.z.z.: : : : : : : : z.z.z.z.f.D D f * * * @ o + + o 7 4 8 9 q f S S - : : : : : : : z.z.z.z.z.z.z.z.: : : : : : : : ",
"z.z.z.z.z.z.z.z.: : : : : : : : z.z.z.z.g.z.z.4.= = = = = = = = D S S S S @.h.z.: : : : : : : : z.z.z.z.z.z.z.z.: : : : : : : : ",
"z.z.z.z.z.z.z.z.: : : : : : : : z.z.z.z.j.z.z.z.: : : : : : : : l.z.z.z.z.z.z.z.: : : : : : : : z.z.z.z.z.z.z.z.: : : : : : : : ",
"z.z.z.z.z.z.z.z.: : : : : : : : z.z.z.z.z.z.z.z.: : : : : : : : z.z.z.z.z.z.z.z.: : : : : : : : z.z.z.z.z.z.z.z.: : : : : : : : ",
"z.z.z.z.z.z.z.z.: : : : : : : : z.z.z.z.z.z.z.z.: : : : : : : : z.z.z.z.z.z.z.z.: : : : : : : : z.z.z.z.z.z.z.z.: : : : : : : : ",
"z.z.z.z.z.z.z.z.: : : : : : : : z.z.z.z.z.z.z.z.: : : : : : : : z.z.z.z.z.z.z.z.: : : : : : : : z.z.z.z.z.z.z.z.: : : : : : : : ",
"z.z.z.z.z.z.z.z.: : : : : : : : z.z.z.z.z.z.x.h.: : : : : : : : z.z.z.z.z.z.z.z.: : : : : : : : z.z.z.z.z.z.z.z.: : : : : : : : "
};
