/* XPM */
static char *_4c69d5c4fe947e6bc2e415fdfa6a6d16sVnBJE8vqb8LbEn[] = {
/* columns rows colors chars-per-pixel */
"64 64 148 2 ",
"   c #2D1F1A",
".  c #281F1E",
"X  c #2D201A",
"o  c #2B211F",
"O  c #2E241F",
"+  c #2F241F",
"@  c #302118",
"#  c #33231A",
"$  c #35251B",
"%  c #32251E",
"&  c #36271C",
"*  c #37281E",
"=  c #392A1E",
"-  c #1F1F29",
";  c #271F20",
":  c #201F27",
">  c #201F28",
",  c #222027",
"<  c #282020",
"1  c #2C2320",
"2  c #2B2423",
"3  c #2E2421",
"4  c #2C2524",
"5  c #27232A",
"6  c #26232C",
"7  c #302623",
"8  c #302726",
"9  c #332823",
"0  c #352821",
"q  c #302827",
"w  c #3B2C20",
"e  c #3E2F23",
"r  c #392C24",
"t  c #3B2C2C",
"y  c #3D2E2D",
"u  c #3F3023",
"i  c #352B32",
"p  c #432C24",
"a  c #433326",
"s  c #423029",
"d  c #4B3228",
"f  c #4D362A",
"g  c #50382C",
"h  c #403131",
"j  c #463334",
"k  c #473E37",
"l  c #4F3A3A",
"z  c #573931",
"x  c #593D32",
"c  c #5C3F34",
"v  c #533D3E",
"b  c #553D3D",
"n  c #644239",
"m  c #65443A",
"M  c #68473C",
"N  c #583F40",
"B  c #4F4C47",
"V  c #554040",
"C  c #5B4142",
"Z  c #5E4342",
"A  c #5D4544",
"S  c #634545",
"D  c #684B48",
"F  c #724E4B",
"G  c #75504C",
"H  c #7A534E",
"J  c #665850",
"K  c #645E52",
"L  c #6B5A51",
"P  c #725E55",
"I  c #686356",
"U  c #6A6455",
"Y  c #6F6959",
"T  c #706155",
"R  c #756156",
"E  c #77675F",
"W  c #746E5D",
"Q  c #7E7662",
"!  c #84584F",
"~  c #8B5B52",
"^  c #8B5C52",
"/  c #885B54",
"(  c #905F57",
")  c #905F58",
"_  c #946259",
"`  c #94665B",
"'  c #98645B",
"]  c #9A675C",
"[  c #9C6B5F",
"{  c #8C6F62",
"}  c #897663",
"|  c #807A66",
" . c #987A67",
".. c #927669",
"X. c #A07163",
"o. c #A67968",
"O. c #A87C6A",
"+. c #AA7F6C",
"@. c #8A816A",
"#. c #828072",
"$. c #828174",
"%. c #82837C",
"&. c #9D9576",
"*. c #AF8B73",
"=. c #B69277",
"-. c #B5927E",
";. c #B89579",
":. c #B79B7C",
">. c #BA987B",
",. c #BA997C",
"<. c #BF9F7F",
"1. c #848780",
"2. c #B69788",
"3. c #B69889",
"4. c #BEB48B",
"5. c #BAA494",
"6. c #B9B392",
"7. c #C1A382",
"8. c #C3A684",
"9. c #CAB18A",
"0. c #CDB58D",
"q. c #CFB98F",
"w. c #C1AA99",
"e. c #CABE92",
"r. c #D3BF93",
"t. c #D0C294",
"y. c #D7C697",
"u. c #D9C798",
"i. c #D5C999",
"p. c #DACD9C",
"a. c #DDCD9C",
"s. c #DFD19E",
"d. c #D1C4AA",
"f. c #DBD1AD",
"g. c #E2D5A2",
"h. c #E2D6A4",
"j. c #E3DBAE",
"k. c #E4DBAE",
"l. c #E4DCB0",
"z. c #E3DDB7",
"x. c #E5E0B9",
"c. c #E6E2BC",
"v. c #E6E4BF",
"b. c #DFDDC5",
"n. c #E6E4C1",
"m. c #E8E9CA",
"M. c #E4E7D0",
"N. c #EAF0D8",
/* pixels */
"a a a a a a a a a a a a a a a a a a a a a a a a a a a a a a a a a a a a a a a a a a a a a a a a a a a a a a a a a a a a a a a a ",
"a a a a a a a a a a a a a a a a a a a a a a a a a a a a a a a a a a a a a a a a a a a a a a a a a a a a a a a a a a a a a a a a ",
"a a a a a a a a a a a a a a a a a a a a a a a a a a a a a a a a a a a a a a a a a a a a a a a a a a a a a a a a a a a a a a a a ",
"a a a a a a a a a a a a a a a a a a a a a a a a a a a a a a a a a a a a a a a a a a a a a a a a a a a a a a a a a a a a a a a a ",
"a a a a a a a a a a a a a a a a a a a a a a a a a a a a a a a a a a a a a a a a a a a a a a a a a a a a a a a a a a a a a a a a ",
"a a a a a a a a a a a a e u a a a a a a a a a e a a a a a a a a a a a a a a a a a a a a a a a e a a a a a a a a a a a a e u a a ",
"w w w w w w w w w w w w w w w w w w w w w w w w w w w w w w w w w w w w w w w w w w w w w w w w w w w w w w w w w w w w w w w w ",
"w w w w w w w w w w w w w w w w w w w w w w w w w w w w w w w w w w w w w w w w w w w w w w w w w w w w w w w w w w w w w w w w ",
"a a e a a a a a a a a a a a a a a a e e a a a a a a a a e a a a a a a a a a e e a a u e a a a a a a e a a a a a a a a a a a a a ",
"a a a a a a a a a a a a a a a a a a a a a a a a a a a a a a a a a a a a a a a a a a a a a a a a a a a a a a a a a a a a a a a a ",
"a a a a a a a a a a a a a a a a a a a a a a a a a a a a a a a a a a a a a a a a a a a a a a a a a a a a a a a a a a a a a a a a ",
"a a a a a a a a a a a a a a a a a a a a a a a a a a a a a a a a a a a a a a a a a a a a a a a a a a a a a a a a a a a a a a a a ",
"a a a a a a a a a a a a a a a a a a a a a a a a a a a a a a a a a a a a a a a a a a a a a a a a a a a a a a a a a a a a a a a a ",
"a a a a a p a u e e a a a a a p a a a a a a a a a a a a a a a a a a a a a a a a a a a a e p a a a a a a a p a u e e a a a a a p ",
"w w w w w w w w w w w w w w w w w w w w w w w w w w w w w w w w w w w w w w w w w w w w w w w w w w w w w w w w w w w w w w w w ",
"w w w w w w w w w w w w w w w w w w w w w = = = = = = = = = = = = = = = = = = = = = = = = w w w w w w w w w w w w w w w w w w w ",
"a a e e a a a a a a e e a a a a a a a a a e = = = = = = = = = = = = = = = = = = e e = = e a a a a a e e a a a a a a e e a a a a ",
"a a a a a a a a a a a a a a a a a a a a a a w = = = = = = = = = = = = = = = = w a a w w a a a a a a a a a a a a a a a a a a a a ",
"a a a a a a a a a a a a a a a a a a a a a a w = = = = = = = = = = = = = = = = w a a w w a a a a a a a a a a a a a a a a a a a a ",
"a a a a a a a a a a a a a a a a a a a a a a w = = = = = = = = = = = = = = = = w a a w w u a a a a a a a a a a a a a a a a a a a ",
"a a a a a a a a a a a a a a a a a a a a a a w = = = = f c c x s 3 3 3 * = = = w a a = = e a a a a a a a a a a a a a a a a a a a ",
"a a a a a a a a a a a a a a a a e e e e e w = & & & & m ^ ^ ! l , , , 1 & & & = w w & & w e e e e e u a a a a a a a a a a a a a ",
"w w w w w w w w w w w w w w w w w = $ # # # # # # p z { 2.-.*.} I I K k . X # # # # # # # # # # # $ = w w w w w w w w w w w w w ",
"w w w w w w w w w w w w w w w w w = $ # # # # # # c ~ 5.b.f.y.t.e.e.4.U : . # # # # X X # # # # # $ = w w w w w w w w w w w w w ",
"a e a a a a a a a a a a a a e e a u e e e e e 0 3 P 3.d.n.l.g.g.g.g.p.&.K k + % & & & & & & & = w e u a a e a a a a a a a a e e ",
"a a a a a a a a a a a a a a a a a a a a a a a 8 > %.M.z.h.g.g.g.g.g.g.p.e.Y , 3 = = = = = = = w a a a a a a a a a a a a a a a a ",
"a a a a a a a a a a a a a a a a a a a a a a a 4 - $.v.j.g.g.g.g.g.g.g.g.i.W , 3 = = = = = = = w a a a a a a a a a a a a a a a a ",
"a a a a a a a a a a a a a a a a a a a a a a a 4 - | h.g.g.g.g.g.g.g.g.g.i.W , 3 = = = = = = = w a a a a a a a a a a a a a a a a ",
"a a a a a a a a a a a a a a a a a a a a a a a 4 - | g.g.g.g.g.g.g.g.s.q.:.J , 3 = = = = = = = w a a a a a a a a a a a a a a a a ",
"a a a a a p a a a a a a a a a a a u e e e e e 4 - | g.g.g.g.g.g.g.g.a.,.` V , 1 & & & & & & & = w e u a a a a a a a a a e a a a ",
"w w w w w w w w w w w w w w w w w = $ # # # # < - T 7.r.g.g.g.g.s.q.<.+.^ v : . # # # # # # # # # $ = w w w w w w w w w w w w w ",
"w w w w w w w w w w w w w w w w w = $ # # # # ; - A [ 8.g.g.g.g.a.,.[ ] ( v : o # # # # # # # # # $ = w w w w w w w w w w w w w ",
"a a e a a a a a a a a e a a a a a u e e e w = + < j S  .8.r.s.q.<.+._ H Z h 4 0 & = w e e e e e e e u a a a a e a a a a a a a a ",
"a a a a a a a a a a a a a a a a a a a a a a w * * 4 6 D X.8.a.,.[ ] ) N 5 8 e e w w a a a a a a a a a a a a a a a a a a a a a a ",
"a a a a a a a a a a a a a a a a a a a a a a w = = 2 - R ,.q.s.9.=.o.( v : 3 a a w w a a a a a a a a a a a a a a a a a a a a a a ",
"a a a a a a a a a a a a a a a a a a a a a a w = = 2 - @.a.s.g.s.u.=.( v : 3 a a w w a a a a a a a a a a a a a a a a a a a a a a ",
"a a a a a a a a a a a a a a a a a a a a a a w g M E 1.6.g.g.g.g.a.;._ G N h q r w w p a a a a a a a a a a a a a a a a a a a a a ",
"a a a a a p a u a a a a a p a a a u e e e w = m ' w.N.x.g.g.g.g.a.;.' ' ( v , 7 = = w e e e e e e e u a a a a a e a a a a a a e ",
"w w w w w w w w w w w w w w w w w = $ # # d n ..w.d.c.j.g.g.g.g.s.0.>.O._ G b t .   # # # # # # # $ = w w w w w w w w w w w w w ",
"w w w w w w w w w w w w w w w w w = $ # # n ' w.N.c.g.g.g.g.g.g.g.g.a.;.' ' / l : . # # # # # # # $ = w w w w w w w w w w w w w ",
"a a e e a a a a a a a a e a a a a u e 0 4 E w.d.c.k.g.g.g.g.s.0.<.<.>.O.' ' ( F b y < % w w = = w e u a a a e e a a e e a a a a ",
"a a a a a a a a a a a a a a a a a a a q - 1.N.c.g.g.g.g.g.g.a.;.' ' ' ' ' ' ' ' / l , 7 a a w w a a a a a a a a a a a a a a a a ",
"a a a a a a a a a a a a a a a a a a a q - 1.N.m.c.c.c.j.g.g.s.0.<.<.<.<.>.O.' ' / l , 7 a a w w a a a a a a a a a a a a a a a a ",
"a a a a a a a a a a a a a a a a a a a q - 1.N.N.N.N.N.x.g.g.g.g.g.g.g.g.a.;.' ' / l , 7 a a w w a a a a a a a a a a a a a a a a ",
"a a a a a a a a a a a a a a a a a a a q - #.c.c.c.c.c.j.g.g.g.g.s.0.<.<.>.O.' ' / l : 7 e a w w a a a a a a a a a a a a a a a a ",
"a a a a a a a a a a a a a a a a a u e 4 - | g.g.g.g.g.g.g.g.g.g.a.;.' ' ' ' ' ' / l : 3 w w = = w e u a a a a a a a a a a a a a ",
"w w w w w w w w w w w w w w w w w = $ < - B | | | | | | | | | | Q L C C C C C C v i : . # # # # # $ = w w w w w w w w w w w w w ",
"w w w w w w w w w w w w w w w w w = $ < - - - - - - - - - - - - - - - - - - - - - - : o # # # # # $ = w w w w w w w w w w w w w ",
"a e a a a a a a a a a a a a e e a u e 0 8 8 8 8 8 8 8 8 8 8 8 8 8 8 8 8 8 8 8 8 8 8 9 w e e e e e e u a a a a a a a a a a a e e ",
"a a a a a a a a a a a a a a a a a a a a a a a a a a a a a a a a a a a a a a a a a a a a a a a a a a a a a a a a a a a a a a a a ",
"a a a a a a a a a a a a a a a a a a a a a a a a a a a a a a a a a a a a a a a a a a a a a a a a a a a a a a a a a a a a a a a a ",
"a a a a a a a a a a a a a a a a a a a a a a a a a a a a a a a a a a a a a a a a a a a a a a a a a a a a a a a a a a a a a a a a ",
"a a a a a a a a a a a a a a a a a a a a a a a a a a a a a a a a a a a a a a a a a a a a a a a a a a a a a a a a a a a a a a a a ",
"a a a a a p a a a a a a e u a a a a a a a a a a a a a a e u a a a a a a a a a a a a a a e u a a a a a a a a a a a a a a e u a a ",
"w w w w w w w w w w w w w w w w w w w w w w w w w w w w w w w w w w w w w w w w w w w w w w w w w w w w w w w w w w w w w w w w ",
"w w w w w w w w w w w w w w w w w w w w w w w w w w w w w w w w w w w w w w w w w w w w w w w w w w w w w w w w w w w w w w w w ",
"a a e a a a a a a a a a a a a a a a e a a a a a a a a a a a a a a a e a a a a a a a a a a a a a a a e a a a a a a a a a a a a a ",
"a a a a a a a a a a a a a a a a a a a a a a a a a a a a a a a a a a a a a a a a a a a a a a a a a a a a a a a a a a a a a a a a ",
"a a a a a a a a a a a a a a a a a a a a a a a a a a a a a a a a a a a a a a a a a a a a a a a a a a a a a a a a a a a a a a a a ",
"a a a a a a a a a a a a a a a a a a a a a a a a a a a a a a a a a a a a a a a a a a a a a a a a a a a a a a a a a a a a a a a a ",
"a a a a a a a a a a a a a a a a a a a a a a a a a a a a a a a a a a a a a a a a a a a a a a a a a a a a a a a a a a a a a a a a ",
"a a a a a p a u e e a a a a a p a a a a a p a u e e a a a a a p a a a a a p a u e e a a a a a p a a a a a p a u e e a a a a a p ",
"w w w w w w w w w w w w w w w w w w w w w w w w w w w w w w w w w w w w w w w w w w w w w w w w w w w w w w w w w w w w w w w w ",
"= = = = = = = = = = = = = = = = = = = = = = = = = = = = = = = = = = = = = = = = = = = = = = = = = = = = = = = = = = = = = = = = "
};
