/* XPM */
static char *_b1de724c0474f51938be033e36b45b9EbphXFHUhhBeEsSZ[] = {
/* columns rows colors chars-per-pixel */
"64 64 173 2 ",
"   c #000000",
".  c #0C020C",
"X  c #0F0110",
"o  c #170519",
"O  c #1C031E",
"+  c #1E0421",
"@  c #2A0F2D",
"#  c #331C2D",
"$  c #2E0632",
"%  c #37073B",
"&  c #3A073F",
"*  c #3A083F",
"=  c #39163A",
"-  c #3A1B3F",
";  c #3C263E",
":  c #7A0A2D",
">  c #7D0E31",
",  c #7E1234",
"<  c #3D0742",
"1  c #45084B",
"2  c #490A4F",
"3  c #46194B",
"4  c #441C4A",
"5  c #550B5B",
"6  c #48254C",
"7  c #53245A",
"8  c #5D0B65",
"9  c #660D6E",
"0  c #661B6F",
"q  c #6C0E75",
"w  c #6F0E78",
"e  c #760F7F",
"r  c #74127D",
"t  c #632D6B",
"y  c #663360",
"u  c #66316F",
"i  c #693172",
"p  c #75367F",
"a  c #75397F",
"s  c #694F69",
"d  c #645E64",
"f  c #801337",
"g  c #811738",
"h  c #831B3C",
"j  c #86203F",
"k  c #8A1E46",
"l  c #872241",
"z  c #892645",
"x  c #8A2847",
"c  c #8C2C4A",
"v  c #8F314E",
"b  c #923453",
"n  c #943A56",
"m  c #96305A",
"M  c #953B58",
"N  c #9C3A63",
"B  c #98405D",
"V  c #9B4661",
"C  c #9E4A65",
"Z  c #824A71",
"A  c #A04F69",
"S  c #A2536C",
"D  c #AA4A79",
"F  c #A85677",
"G  c #A65972",
"H  c #AC647C",
"J  c #7C0F86",
"K  c #7D3786",
"L  c #83178E",
"P  c #8A1195",
"I  c #93279F",
"U  c #A515B3",
"Y  c #B01ABF",
"T  c #9D2EA9",
"R  c #C119B0",
"E  c #8B4889",
"W  c #8A4296",
"Q  c #93459F",
"!  c #B2458F",
"~  c #B6568C",
"^  c #B24B93",
"/  c #B8569C",
"(  c #AF6582",
")  c #B06585",
"_  c #B6688B",
"`  c #B86497",
"'  c #B551A5",
"]  c #AF53BF",
"[  c #BA5FBD",
"{  c #BE68A2",
"}  c #C551B9",
"|  c #C56DA4",
" . c #CA6FAD",
".. c #C671A6",
"X. c #CB73AC",
"o. c #C768B7",
"O. c #CB65BD",
"+. c #CE73B2",
"@. c #D077B4",
"#. c #D275BB",
"$. c #B238C2",
"%. c #C318D2",
"&. c #CF36D1",
"*. c #DA34DC",
"=. c #CF1AE0",
"-. c #EC1EFF",
";. c #DD21EF",
":. c #CF3FE0",
">. c #DC32E4",
",. c #DB36EE",
"<. c #DE24F1",
"1. c #E72AF7",
"2. c #EB25FF",
"3. c #EB29FF",
"4. c #E334F3",
"5. c #E736F8",
"6. c #EC3DFE",
"7. c #B358C3",
"8. c #CD5AC9",
"9. c #DD54D7",
"0. c #D569C7",
"q. c #D765D8",
"w. c #DD48F0",
"e. c #E446EA",
"r. c #E343F7",
"t. c #EA49FA",
"y. c #ED4FFA",
"u. c #E95CF6",
"i. c #E55CF9",
"p. c #EB5BFE",
"a. c #DB6BEB",
"s. c #DF72E0",
"d. c #DC6AF0",
"f. c #E26FE7",
"g. c #E26FEC",
"h. c #E372EA",
"j. c #E165F4",
"k. c #E76CF6",
"l. c #EA66FE",
"z. c #EA6DFF",
"x. c #E671F3",
"c. c #EA7EF5",
"v. c #EA73FE",
"b. c #EA7DFC",
"n. c #D692E2",
"m. c #E293EE",
"M. c #E49DEE",
"N. c #E588F5",
"B. c #E780F9",
"V. c #EB84FA",
"C. c #EA8BF9",
"Z. c #E791F5",
"A. c #ED93F7",
"S. c #ED9DF4",
"D. c #E3A4EC",
"F. c #E6ADEE",
"G. c #E4B7E9",
"H. c #EBB7ED",
"J. c #ECBBEC",
"K. c #EBA5F3",
"L. c #EEABF2",
"P. c #EFB5F0",
"I. c #D1C5D1",
"U. c #D5CAD5",
"Y. c #D8C2D8",
"T. c #D8CED8",
"R. c #DCD3DC",
"E. c #E2C3E2",
"W. c #E5CDE5",
"Q. c #E4C1E9",
"!. c #E9C7EA",
"~. c #E3D3E3",
"^. c #E2D9E2",
/* pixels */
": : : : : : : : I.I.I.I.I.I.I.I.: : : : : : : : I.I.I.I.I.I.I.U.l : : : : : : : I.I.I.I.I.I.I.I.: : : : : : : : I.I.I.I.I.I.I.I.",
": : : : : : : : I.I.I.I.I.I.I.I.: : : : : : : : I.I.I.I.I.I.I.U.z : : : : : : : I.I.I.I.I.I.I.I.: : : : : : : : I.I.I.I.I.I.I.I.",
": : : : : : : : I.I.I.I.I.I.I.I.: : : : : : : : I.I.I.I.I.I.I.T.B : : : : : : : I.I.I.I.I.I.I.I.: : : : : : : : I.I.I.I.I.I.I.I.",
": : : : : : : : I.I.I.I.I.I.I.I.: : : : : : : : I.I.I.I.I.I.I.U.A : : : : : : : I.I.I.I.I.I.I.I.: : : : : : : : I.I.I.I.I.I.I.I.",
": : : : : : : : I.I.I.I.I.I.I.I.: : : : : : : : I.I.I.U.I.I.U.R.B : : : : : : : I.I.I.I.I.I.I.I.: : : : : : : : I.I.I.I.I.I.I.I.",
": : : : : : : : I.I.I.I.I.I.I.I.: : : : : : : : I.I.I.I.U.U.W.!.F : : : : : : : I.I.I.I.I.I.I.I.: : : : : : : : I.I.I.I.I.I.I.I.",
": : : : : : : : I.I.I.I.I.I.I.I.: : : : : : : : I.I.I.I.I.U.E.J.~ : : : : : : : I.I.I.I.I.I.I.I.: : : : : : : : I.I.I.I.I.I.I.I.",
": : : : : : : : I.I.I.I.I.I.I.I.: : : : : : : : I.I.I.I.I.I.m.b.} : : : : : : : I.I.I.I.I.I.I.I.: : : : : : : : I.I.I.I.I.I.I.I.",
"I.I.I.I.I.I.I.I.: : : : : : : : I.I.I.I.I.I.I.I.: : : : : : R t.Z.R.I.I.I.I.I.I.> : : : : : : : I.I.I.I.I.I.I.I.: : : : : : : : ",
"I.I.I.I.I.I.I.I.: : : : : : : : I.I.I.I.I.I.I.I.: : : : : ~ >.2.u.~.I.I.I.I.I.I.: : : : : : : : I.I.I.I.I.I.I.I.: : : : : : : : ",
"I.I.I.I.I.I.I.I.: : : : : : : : I.I.I.I.I.I.I.I.: : : : h 8.t w u.^.I.I.I.I.I.I.: : : : : : : : I.I.I.I.I.I.I.I.: : : : : : : : ",
"I.I.I.I.I.I.I.I.: : : : : : : : I.I.I.I.I.I.I.I.: : : > G *.5 9 y.J.I.I.I.I.I.I.: : : : : : : : I.I.I.I.I.I.I.I.: : : : : : : : ",
"I.I.I.I.I.I.I.I.: : : : : : : : I.I.I.I.I.I.U.U., : , b 0.>.5 9 y.J.I.I.I.I.I.I.: : : : : : : : I.I.I.I.I.I.I.I.: : : : : : : : ",
"I.I.I.I.I.I.I.I.: : : : : : : : I.I.I.I.I.I.I.U.j x n ( x.4 . 9 y.J.I.I.I.I.I.I.: : : : : : : : I.I.I.I.I.I.I.I.: : : : : : : : ",
"I.I.I.I.I.I.I.I.: : : : : : : : I.I.I.I.I.I.I.I.j B ` k.3.&   9 6.c.I.I.I.I.I.U.: : : : : : : : I.I.I.I.I.I.I.I.: : : : : : : : ",
"I.I.I.I.I.I.I.I.: : : : : : : : I.I.U.I.I.I.U.U.j D 8.<.O     . 7 c.~.R.T.U.I.I.: : : : : : : : I.I.I.I.I.I.I.I.: : : : : : : : ",
": : : : : : : : I.I.I.I.I.I.I.I.: : : : h h : : T.F.7.X         2 1.@.) B j : : I.I.I.I.I.I.I.I.: : : : : : : : I.I.I.I.I.I.I.I.",
": : : : : : : : I.I.I.I.I.I.I.I.: : : : , j c v D.p.Y           . @ a.#._ b : : I.I.U.I.I.I.I.I.: : : : : : : : I.I.I.I.I.I.I.I.",
": : : : : : : : I.I.I.I.I.I.I.I.: : : : : > c b M.W .               . [ { B : : I.U.U.I.I.I.I.I.: : : : : : : : I.I.I.I.I.I.I.I.",
": : : : : : : : I.I.I.I.I.I.I.I.: : : : : : : ~ k.L                   q ' A : , T.I.I.I.I.I.I.I.: : : : : : : : I.I.I.I.I.I.I.I.",
": : : : : : : : I.I.I.I.I.I.I.I.: : : : : : : 8.K o                   . Q o.A v T.I.I.I.I.I.I.I.: : : : : : : : I.I.I.I.I.I.I.I.",
": : : : : : : : I.I.I.I.I.I.I.I.: : : : : : l q.i                       I 9.{ S I.I.I.I.I.I.I.I.: : : : : : : : I.I.I.I.I.I.I.I.",
": : : : : : : : I.I.I.I.I.I.I.I.: : : : : f O.4.9                       . K s...R.T.U.U.U.I.I.I.: : : : : : : : I.I.I.I.I.I.I.I.",
": : : : : : : : I.I.I.I.I.I.I.I.: : : : g F g.5.0                         K s.X.^.R.T.U.I.I.I.I.: : : : : : : : I.I.I.I.I.I.I.I.",
"I.I.I.I.I.I.I.I.: : : : : : : : I.I.I.I.Y.P.b.6                           r 6.V.H n , : : : : : I.I.I.I.I.I.I.I.: : : : : : : : ",
"I.I.I.I.I.I.I.I.: : : : : : : : I.I.U.R.~.P.b.<                           . 5 t.+.m , : : : : : I.I.I.I.I.I.I.I.: : : : : : : : ",
"I.I.I.I.I.I.I.I.: : : : : : : : I.I.U.R.Q.v.z.-                             . 4 @.z : : : : : : I.I.I.I.I.I.I.I.: : : : : : : : ",
"I.I.I.I.I.I.I.I.: : : : : : : : I.I.U.R.Q.z.3.&                             3 d.+.k : : : : : : I.I.I.I.I.I.I.I.: : : : : : : : ",
"I.I.I.I.I.I.I.I.: : : : : : : : I.I.U.R.Q.z.3.<                           w 4.B.H , > : : : : : I.I.I.I.I.I.I.I.: : : : : : : : ",
"I.I.I.I.I.I.I.I.: : : : : : : : I.I.U.E.L.d.@                             e y.H.: : : : : : : : I.I.I.I.I.I.I.I.: : : : : : : : ",
"I.I.I.I.I.I.I.I.: : : : : : : : I.I.R.G.l.;.O                             p V.J.: : : : : : : : I.I.I.I.I.I.I.I.: : : : : : : : ",
"I.I.I.I.I.I.I.I.: : : : : : : : I.I.R.F.7..                               a C.J.: : : : : : : : I.I.I.I.I.I.I.I.: : : : : : : : ",
": : : : : : : : I.I.I.I.I.I.I.I.: > M { 7.                                r e.| T.I.I.I.I.I.I.I.: : : : : : : : I.I.I.I.I.I.I.I.",
": : : : : : : : I.I.I.I.I.I.I.I.: l M / i.=.O                             9 &.X.^.U.I.I.I.I.I.I.: : : : : : : : I.I.I.I.I.I.I.I.",
": : : : : : : : I.I.I.I.I.I.U.U.c v v ^ p.-.<.%                           1 T x.P.~.^.T.T.U.U.I.: : : : : : : : I.I.I.I.I.I.I.I.",
": : : : : : : : I.I.I.I.I.I.I.I.> > > v { l.3.=                             o - L.H.~.~.U.I.I.I.: : : : : : : : I.I.I.I.I.I.I.I.",
": : : : : : : : I.I.I.I.I.I.I.I.: : : > m #.x.<                               + 3.S.P.E.T.I.I.I.: : : : : : : : I.I.I.I.I.I.I.I.",
": : : : : : : : I.I.I.I.I.I.I.I.: : : : l ( +.>.9                             O -.l.L.E.U.I.I.I.: : : : : : : : I.I.I.I.I.I.I.I.",
": : : : : : : : I.I.I.I.I.I.I.I.: : : : l H @.e.0                             O z.K.Q.~.T.I.I.I.: : : : : : : : I.I.I.I.I.I.I.I.",
": : : : : : : : I.I.I.I.I.I.I.I.: : : : : , | h.u                           . = v.L.W.R.T.T.I.I.: : : : : : : : I.I.I.I.I.I.I.I.",
"I.I.I.I.I.I.I.I.: : : : : : : : I.I.I.I.I.I.R.C.u                           1 4.#._ c > : , h h I.I.I.I.I.I.I.I.: : : : : : : : ",
"I.I.I.I.I.I.I.I.: : : : : : : : I.I.I.I.I.I.^.C.5.J                       w 5.B.+.V f : : : : : I.I.I.I.I.I.I.I.: : : : : : : : ",
"I.I.I.I.I.I.I.I.: : : : : : : : I.I.I.I.I.I.T.N.:.9                     P r.V.J.H h : : : : : : I.I.I.I.I.I.I.I.: : : : : : : : ",
"I.I.I.I.I.I.I.I.: : : : : : : : I.I.I.I.I.I.U.N.K o                     Q A.J.!.H h : : : : : : I.I.I.I.I.I.I.I.: : : : : : : : ",
"I.I.I.I.I.I.I.I.: : : : : : : : I.I.I.I.I.I.I.N.i                     $.j.K.^.^.b , : : : : : : I.I.I.I.I.I.I.I.: : : : : : : : ",
"I.I.I.I.I.I.I.I.: : : : : : : : I.I.I.I.I.I.I.M.y                 O =.c.H.~.R.I.: h h , : : : : I.I.I.I.I.I.I.I.: : : : : : : : ",
"I.I.I.I.I.I.I.I.: : : : : : : : I.I.I.I.I.I.T.G.y X             1 1.l.L.W.R.I.I.: : : : : : : : I.I.I.I.I.I.I.I.: : : : : : : : ",
"I.I.I.I.I.I.I.I.: : : : : : : : I.I.I.I.U.R.U.^.O.w.U           2 5.L.W.U.I.I.I.: : : : : : : : I.I.I.I.I.I.I.I.: : : : : : : : ",
": : : : : : : : I.I.I.I.I.I.I.I.: f , : : : : f G.A.]           3 y.#.N h : : : I.I.I.I.I.I.I.I.: : : : : : : : I.I.I.I.I.I.I.I.",
": : : : : : : : I.I.I.I.I.I.I.I.: : : : : : : : E.K.i.%..       6 x.@.b > : : : I.I.I.I.I.I.I.I.: : : : : : : : I.I.I.I.I.I.I.I.",
": : : : : : : : I.I.I.I.I.I.I.I.: : : : : : : : R.F.z.j.L +   $ T a.) l : : : : I.I.I.I.I.I.I.I.: : : : : : : : I.I.I.I.I.I.I.I.",
": : : : : : : : I.I.I.I.I.I.I.I.: : : : : : : , R.!.H.L.1.*   8 ,.g.H x , : : : I.I.I.I.I.I.I.I.: : : : : : : : I.I.I.I.I.I.I.I.",
": : : : : : : : I.I.I.I.I.I.I.I.: : : : : : h h T.R.~.P.v.3 . t f. .M v j : : : I.I.I.I.I.I.I.I.: : : : : : : : I.I.I.I.I.I.I.I.",
": : : : : : : : I.I.I.I.I.I.I.I.: : : : : : : : I.I.Y.~.S.4.2 s | G , l j , : : I.I.I.I.I.I.I.I.: : : : : : : : I.I.I.I.I.I.I.I.",
": : : : : : : : I.I.I.I.I.I.I.I.: : : : : : : : I.I.I.I.K.6 . d C > : : : , , : I.I.I.I.I.I.I.I.: : : : : : : : I.I.I.I.I.I.I.I.",
": : : : : : : : I.I.I.I.I.I.I.I.: : : : : : : : I.I.I.I.S.; W n.> : : : : : > , I.I.I.I.I.I.I.I.: : : : : : : : I.I.I.I.I.I.I.I.",
"I.I.I.I.I.I.I.I.: : : : : : : : I.I.I.I.I.I.I.I.: : : f 0.= E ! I.I.I.I.I.I.I.I.: : : : : : : : I.I.I.I.I.I.I.I.: : : : : : : : ",
"I.I.I.I.I.I.I.I.: : : : : : : : I.I.I.I.I.I.I.I.: : : f  .# Z D I.I.I.I.I.I.I.I.: : : : : : : : I.I.I.I.I.I.I.I.: : : : : : : : ",
"I.I.I.I.I.I.I.I.: : : : : : : : I.I.I.I.I.I.I.I.: : : , _ *.} n I.I.I.I.I.I.I.I.: : : : : : : : I.I.I.I.I.I.I.I.: : : : : : : : ",
"I.I.I.I.I.I.I.I.: : : : : : : : I.I.I.I.I.I.I.I.: : : > G q.^ c U.U.I.I.I.I.I.I.: : : : : : : : I.I.I.I.I.I.I.I.: : : : : : : : ",
"I.I.I.I.I.I.I.I.: : : : : : : : I.I.I.I.I.I.I.I.: : : : v { N : I.I.I.I.I.I.I.I.: : : : : : : : I.I.I.I.I.I.I.I.: : : : : : : : ",
"I.I.I.I.I.I.I.I.: : : : : : : : I.I.I.I.I.I.I.I.: : : : > C x : I.I.I.I.I.I.I.I.: : : : : : : : I.I.I.I.I.I.I.I.: : : : : : : : ",
"I.I.I.I.I.I.I.I.: : : : : : : : I.I.I.I.I.I.I.I.: : : : : > : : I.I.I.I.I.I.I.I.: : : : : : : : I.I.I.I.I.I.I.I.: : : : : : : : ",
"I.I.I.I.I.I.I.I.: : : : : : : : I.I.I.I.I.I.I.I.: : : : : : : : I.I.I.I.I.I.I.I.: : : : : : : : I.I.I.I.I.I.I.I.: : : : : : : : "
};
