/* XPM */
static char *_766f0f3c1484adad8bcc41d9601ea71zrJAAogCbiCXlHQf[] = {
/* columns rows colors chars-per-pixel */
"64 64 114 2 ",
"   c #141412",
".  c #151412",
"X  c #151512",
"o  c #171413",
"O  c #151514",
"+  c #191513",
"@  c #191714",
"#  c #1D1715",
"$  c #1F1615",
"%  c #1D1916",
"&  c #171818",
"*  c #18191B",
"=  c #181B1B",
"-  c #1C191A",
";  c #1E1E1D",
":  c #211716",
">  c #231716",
",  c #211C17",
"<  c #241818",
"1  c #231E18",
"2  c #251D19",
"3  c #251F18",
"4  c #271F1A",
"5  c #271C1F",
"6  c #281818",
"7  c #24231F",
"8  c #282018",
"9  c #2A2118",
"0  c #2C221A",
"q  c #2F231E",
"w  c #30241E",
"e  c #31251E",
"r  c #1D2026",
"t  c #222127",
"y  c #2E2224",
"u  c #20242D",
"i  c #25252E",
"p  c #212A2D",
"a  c #232B2E",
"s  c #252A2C",
"d  c #262B2E",
"f  c #252D2F",
"g  c #2B2F2D",
"h  c #332520",
"j  c #342620",
"k  c #362720",
"l  c #362821",
"z  c #382921",
"x  c #3A2B22",
"c  c #3C2B21",
"v  c #3C2B22",
"b  c #3E2C22",
"n  c #3C2E22",
"m  c #3E2F23",
"M  c #263236",
"N  c #28363A",
"B  c #35383A",
"V  c #3A383D",
"C  c #402D22",
"Z  c #412E23",
"A  c #423224",
"S  c #443225",
"D  c #473524",
"F  c #4A3727",
"G  c #4E3724",
"H  c #4F3927",
"J  c #523A25",
"K  c #543A26",
"L  c #573D25",
"P  c #523D2A",
"I  c #5A3E28",
"U  c #59402A",
"Y  c #5F4129",
"T  c #44413B",
"R  c #46453F",
"E  c #67472B",
"W  c #6E4B2C",
"Q  c #2E3D41",
"!  c #373B40",
"~  c #314045",
"^  c #394F59",
"/  c #3B5059",
"(  c #3F5761",
")  c #3C5864",
"_  c #40434A",
"`  c #545148",
"'  c #415963",
"]  c #425B67",
"[  c #43616F",
"{  c #486069",
"}  c #496775",
"|  c #4F6C77",
" . c #4E6F7E",
".. c #4A6F80",
"X. c #517383",
"o. c #597986",
"O. c #527A8B",
"+. c #5F7988",
"@. c #537F93",
"#. c #5A8598",
"$. c #618495",
"%. c #5C8EA5",
"&. c #638FA1",
"*. c #6C99AC",
"=. c #719AAE",
"-. c #679CB3",
";. c #71A1B5",
":. c #70A6BE",
">. c #76A9BF",
",. c #7AB0C8",
"<. c #7EB8D1",
"1. c #81BBD4",
"2. c #87C2DC",
"3. c #8AC6E0",
/* pixels */
"W W W Y Z Z E W W W W W W W W W W W W W W W W W W W W W W W W W W W W W W W W W W W W W W W W W W W W W W W W W W Y Z Z E W W W ",
"W W W Y Z Z I W W W W W W W W W W W W W W W W W W W W W W W W W W W W W W W W W W W W W W W W W W W W W W W W W W Y Z Z L W W W ",
"W W W Y Z Z Y W W W W W W W W W W W W W W W W W W W W W W W W W W W W W W W W W W W W W W W W W W W W W W W W W W Y Z Z E W W W ",
"Y Y Y K c c G L K L L L L L L L L L L L L L L L L L L L L L L L L L L L L L L L L L L L L L L L L L L L L L L L L G c c G I I E ",
"Z Z Z b k w 0 9 9 9 9 9 9 9 9 9 9 9 9 9 9 9 9 2 9 9 9 9 9 9 9 9 9 9 9 9 9 9 9 9 9 9 9 9 9 9 9 9 9 9 9 9 9 9 9 9 9 9 q l c Z Z Z ",
"Z Z Z c w 2 @ .         . . . .         . . .                                                                   o @ 2 h e b c c ",
"Y Y Y G 0 @ . .                                                                                                     @ 2 m F F F ",
"W W W L 9 . . @ + . .                                                                                                 2 A P P P ",
"W W W L 9 . > > > > . . .                                                                                             1 A P P P ",
"E E E J 9 . > 6 < $ + . . .                                                                                           1 A P P P ",
"U U U D 8 o > 6 6 > + .                                                                                               1 A P P P ",
"U U U D 2 @ > 6 6 < + .                                                                                               1 A P P P ",
"E E E J 2 + > 6 < > +                                                                                                 1 A P P P ",
"E E E J 9 + > 6 6 > +                                                                                                 1 A P P P ",
"Y Y U D 2 @ > 6 6 > +                                                                                                 1 A P P P ",
"` ` ` _ g f V V y > +                                                                                                 1 A P P P ",
"o.o.X.| / ) $.+.V > @ o                                                                                             O % A U P P ",
"%.%.%.@.[  .>.=._ > o o   o                                                                                         o % A U P P ",
"%.%.%.O.[  .>.=._ > @ .                                                                                               8 m P P P ",
"%.%.%.#.[  .>.=._ > o .                                                                                               t T ` ` ` ",
"%.%.#.#.[  .>.=._ > . .                                                                                               p [ o.o.o.",
"X.X. .| / ) $.+.V > @ .                                                                                               M  .%.%.%.",
"~ T ~ V f f V V y < o                                                                                                 M  .%.%.%.",
"e A e e # @ < 6 < > o                                                                                                 N O.-.-.-.",
"J H F b , + > 6 6 > . .                                                                                             O ~ &.<.<.<.",
"P P P A 2 + > 6 6 6 - * O                                                                                           & ~ *.2.2.2.",
"P P P A , + > 6 6 5 t r &                                                                                             ~ =.3.2.3.",
"P P P A 2 + > 6 6 5 s r =                                                                                         = r ) ;.3.3.3.",
"P P P A 1 @ > 6 6 5 i r = o                                                                                     O r ) #.,.2.3.3.",
"P P P A 1 @ > 6 6 5 t r & o                                                                                     O M #.:.2.2.3.3.",
"P P P A 1 + > 6 6 > - & O                                                                                   X X X Q &.2.2.3.3.3.",
"P P P A 1 @ > < 6 > + o O O                                                                                 X X X ~ *.3.3.3.3.3.",
"P P U A 6 + > 6 < > & .                                                                                           ~ *.2.2.3.3.3.",
"P P U m , o > 6 6 < - & .                                                                                         Q %.<.2.3.3.3.",
"P P P m 9 . > 6 6 5 t r &                                                                                         N #.:.2.3.3.3.",
"P P U m 8 O > 6 6 5 i u &                                                                                         r ^ #.,.3.3.3.",
"P P P m 1 @ < 6 6 5 i u & .                                                                                     X = f ^ ;.2.2.3.",
"P P U m < + > 6 6 5 t r &                                                                                       X X X ~ =.2.3.3.",
"U H T A , @ > 6 6 6 - . . .                                                                                     X X X ~ *.2.3.3.",
"H U J A 2 o > 6 6 < @ .                                                                                         X X X Q &.1.1.2.",
"U P H m 8 O < < 6 < + .                                                                                             O N #.-.-.-.",
"` ` ` R g f B V i < + .                                                                                             O N | %.%.%.",
"O.o.o.} / ' $.+.F 5 + .                                                                                               N  .%.%.%.",
"%.%.%.#.[ | ,.=.~ > + .                                                                                               r ) X... .",
"%.%.#.#.[  .,.*._ < + .                                                                                             O ; N ~ T ~ ",
"%.%.%.#.[  .>.*._ 6 + .                                                                                               % e n n n ",
"%.%.%.#.]  .>.=.~ 6 +                                                                                               O % n A F F ",
"X.X. .} / ' $.+.V > +                                                                                               O 8 m P U U ",
"! ! ~ B s f B V y 6 o o                                                                                               % m U U U ",
"c c c h % + < 6 < > o                                                                                                 8 m U U F ",
"F F P c % @ > 6 6 > @                                                                                                 , l U T H ",
"P P P A 9 . > 6 6 > @ o                                                                                               8 n U H U ",
"P P P A % @ > 6 < > .                                                                                               X , m U U U ",
"P P P A 9 @ 6 < 6 > + o                                                                                           X X ; m U T U ",
"P P P A , o > > 6 > . o                                                                                             X 9 m U G U ",
"F F F m 8 % > > > > o                         .                                                                     @ 7 n D A A ",
"x c Z e y 1 > @ + .             . . . . . . . .   .         .       O X         O     O O                         X 8 0 z z z n ",
"Z Z Z c e h 9 6 9 9 9 9 9 9 9 9 0 2 4 9 9 9 9 2 8 , 8 8 8 8 2 2 1 1 1 ; 1 1 1 1 1 8 , 1 , , 1 ; , 8 , 7 , 8 % 8 8 8 y z l n n z ",
"E I I K b c G L I L L L L L L L L L L L I L L J D D J J D D P H A m m m m n m m m m A m m n m m m A n m m A A A m m e e m F F F ",
"W W W E Z Z Y W W W W W W W W W W W W W W W W E U U E E U U E E U U U U U U U U P P U U U U U U U U P P U U J T U D n n F P P U ",
"W W W I Z Z Y W W W W W W W W W W W W W W W W E U U E E U I E E U P P U U U U F U T J J U U F U U U U F U U F U U F z n F P P P ",
"I E Y K C v K Y I I E I E I E I E I I Y I I E I H H I U H P I I F F F F m T F D F F F F A F F F m F F F F F F F F A l z m P F D ",
"Z C Z c j k c Z Z Z Z Z Z Z e Z Z Z Z Z Z Z m x b b b b c c m m z c z n n n z z x x x n x x c x c c g e z x n z x z l h l x x x ",
"j h j k j j j j k k j k e c e e h h h h h k k k e e l e h h h h h h e l e e e e h h h h h y h h h e c e h h h h h h h h h h h h "
};
