/* XPM */
static char *_bb4f0bd4b2441b6e3937557b27ae02fuLxUwrPR9CXPdiMR[] = {
/* columns rows colors chars-per-pixel */
"64 64 151 2 ",
"   c #77092D",
".  c #7A0A2D",
"X  c #660B37",
"o  c #6C0A34",
"O  c #630A39",
"+  c #750C32",
"@  c #7C0C30",
"#  c #7E1133",
"$  c #2C165C",
"%  c #2C1C5D",
"&  c #331055",
"*  c #321D5B",
"=  c #381D5E",
"-  c #311F60",
";  c #4C0D45",
":  c #530D42",
">  c #590E44",
",  c #481A4F",
"<  c #60155A",
"1  c #422967",
"2  c #573770",
"3  c #6B2263",
"4  c #624578",
"5  c #841C3D",
"6  c #872241",
"7  c #882444",
"8  c #8E2F4C",
"9  c #90324F",
"0  c #A51D61",
"q  c #AB1F65",
"w  c #862768",
"e  c #9D2772",
"r  c #942B7A",
"t  c #AA2167",
"y  c #A4236B",
"u  c #A9256B",
"i  c #A42B6D",
"p  c #AC2B6C",
"a  c #B02C6E",
"s  c #A62D70",
"d  c #A03776",
"f  c #9F4C66",
"g  c #A1516A",
"h  c #7B378D",
"j  c #7A3B94",
"k  c #745E8B",
"l  c #7B638E",
"z  c #7A6690",
"x  c #7E6A93",
"c  c #6C43A1",
"v  c #624AAC",
"b  c #6F5DA6",
"n  c #3D60CF",
"m  c #3A63D4",
"M  c #3968D6",
"N  c #346BDC",
"B  c #3D6BD8",
"V  c #3F70D7",
"C  c #3E70DD",
"Z  c #425ECC",
"A  c #4A6DC9",
"S  c #4077DE",
"D  c #8E3381",
"F  c #80388E",
"G  c #983782",
"H  c #844698",
"J  c #A34E85",
"K  c #B84780",
"L  c #BA5589",
"P  c #876E97",
"I  c #8D7A9D",
"U  c #B26E83",
"Y  c #BD7D92",
"T  c #7684AB",
"R  c #3885DF",
"E  c #3B9CE2",
"W  c #3EA9E4",
"Q  c #428FDA",
"!  c #6EA6DF",
"~  c #5D8DE2",
"^  c #6389E2",
"/  c #6D90E3",
"(  c #7BA1E6",
")  c #42C1E7",
"_  c #43CAE8",
"`  c #45D1E5",
"'  c #47D9E2",
"]  c #4FDAE3",
"[  c #47DFEB",
"{  c #51D4EC",
"}  c #47E0EB",
"|  c #49E7EC",
" . c #51E1E7",
".. c #52E5EC",
"X. c #58E6E9",
"o. c #54E8EC",
"O. c #5CE8ED",
"+. c #63E3EB",
"@. c #79EBEF",
"#. c #BF8698",
"$. c #BB93A3",
"%. c #B0A3B9",
"&. c #C38D9D",
"*. c #C19CAA",
"=. c #C9A9B6",
"-. c #D1A5B3",
";. c #D5ACB7",
":. c #D8B1BD",
">. c #8195DD",
",. c #92A0D7",
"<. c #93ABE9",
"1. c #C6B7C7",
"2. c #C7B9C9",
"3. c #CCBDCC",
"4. c #D7B9C4",
"5. c #E6B6CC",
"6. c #80DFE4",
"7. c #88ECEF",
"8. c #95E3EB",
"9. c #98EEF1",
"0. c #AAEFF1",
"q. c #BEF1F3",
"w. c #CEC2CF",
"e. c #CDC5D2",
"r. c #D1C5D1",
"t. c #D4C9D4",
"y. c #D8CDD7",
"u. c #D9CFD9",
"i. c #DDD4DD",
"p. c #E1C3CC",
"a. c #E5CAD1",
"s. c #E0D7DE",
"d. c #D7D7E0",
"f. c #D6D5E5",
"g. c #DADDF2",
"h. c #E8DEE5",
"j. c #F1DEE2",
"k. c #D8EEF2",
"l. c #DEF4F5",
"z. c #EBE1E7",
"x. c #EDE4EA",
"c. c #F2E2E7",
"v. c #F6E6EA",
"b. c #F2EAEF",
"n. c #F9E9EE",
"m. c #F3EEF5",
"M. c #ECF3F5",
"N. c #F4F6F7",
"B. c #FCF4F6",
"V. c #FFF7F8",
"C. c #FFF8FA",
/* pixels */
". . . . . . . . r.r.r.r.r.r.r.r.. . . . . . . . 3.r.r.r.r.r.r.r.. . . . . . . . r.r.r.r.r.r.r.r.. . . . . . . . r.r.r.r.r.r.r.r.",
". . . . . . . . r.r.r.r.r.r.r.r.. . . . . . . . 3.r.r.r.r.r.r.r.. . . . . . . . r.r.r.r.r.r.r.r.. . . . . . . . r.r.r.r.r.r.r.r.",
". . . . . . . . r.r.r.r.r.r.r.r.. . . . . . . . r.r.r.r.r.r.r.r.. . . . . . . . r.r.r.r.r.r.r.r.. . . . . . . . r.r.r.r.r.r.r.r.",
". . . . . . . . r.r.r.r.r.r.r.r.. . . . . . . . r.r.r.r.r.,.H J 6 . . . . . . . r.r.r.r.r.r.r.r.. . . . . . . . r.r.r.r.r.r.r.r.",
". . . . . . . . r.r.r.r.r.r.r.r.. . . . . . . . r.r.r.r.s.p u K ] . . . . . . . r.r.r.r.r.r.r.r.. . . . . . . . r.r.r.r.r.r.r.r.",
". . . . . . . . r.r.r.r.r.r.r.r.. . . . . . . . r.r.r.t.r.3 < t *.. . . . . . . r.r.r.r.r.r.r.r.. . . . . . . . r.r.r.r.r.r.r.r.",
". . . . . . . . r.r.r.r.r.r.r.r.. . . . . . . 5 y.X.n.+./ t h f.B v.0 0 0 8 . . r.r.r.r.r.r.r.r.. . . . . . . . r.r.r.r.r.r.r.r.",
". . . . . . . . r.r.r.r.r.r.r.r.. . . . . . . 0 a u o.d y j t G [ a n.q n.c.5 . r.r.r.r.r.r.r.r.. . . . . . . . r.r.r.r.r.r.r.r.",
"r.r.r.r.r.r.r.r.. . . . . . . . r.r.r.r.r.r.r.q q q i q 5.8.q q i n.B.q C O.x.r.. . . . . . . . r.r.r.r.r.r.r.r.. . . . . . . . ",
"r.r.r.r.r.r.r.r.. . . . . . . . r.r.r.r.r.r.r.3.n.q q q Z 9.v q q o.o.] m.d.r.r.. . . . . . . . r.r.r.r.r.r.r.r.. . . . . . . . ",
"r.r.r.r.r.r.r.r.. . . . . . . . r.r.r.r.r.r.r.r.5 ] m q q a y q q i | N.b.r.r.r.. . . . . . . . r.r.r.r.r.r.r.r.. . . . . . . . ",
"r.r.r.r.r.r.r.r.. . . . . . . . r.r.r.r.r.r.r.r.. =.t q q q q q q m | V.r.r.r.r.. . . . . . . . r.r.r.r.r.r.r.r.. . . . . . . . ",
"r.r.r.r.r.r.r.r.. . . . . . . . r.r.r.r.r.r.r.r.. 7 Z q q q q q q [ M.V.e.r.r.r.. . . . . . . . r.r.r.r.r.r.r.r.. . . . . . . . ",
"r.r.r.r.r.r.r.r.. . . . . . . . r.r.r.r.r.r.r.r.. . ) q q q q r m | B.x.r.r.r.r.. . . . . . . . r.r.r.r.r.r.r.r.. . . . . . . . ",
"r.r.r.r.r.r.r.r.. . . . . . . . r.r.r.r.r.r.r.r.. . 0.c q q q v W | V.i.r.r.r.r.. . . . . . . . r.r.r.r.r.r.r.r.. . . . . . . . ",
"r.r.r.r.r.r.r.r.. . . . . . . . r.r.r.r.r.r.r.r.. . N.y q q q c | 7.V.t.r.r.r.r.. . . . . . . . r.r.r.r.r.r.r.r.. . . . . . . . ",
". . . . . . . . r.r.r.r.r.r.r.r.. . . . . . . . r.t.{ q q q q A ` N.g.p.. . . . r.r.r.r.r.r.r.r.. . . . . . . . r.r.r.r.r.r.r.r.",
". . . . . . . . r.r.r.r.r.r.r.r.. . . . . . . . r.B.i q q j q y i V ....5 . . . r.r.r.r.r.r.r.r.. . . . . . . . r.r.r.r.r.r.r.r.",
". . . . . . . . r.r.r.r.r.r.r.r.. . . . . . . . r.t.q q q q q r t y u 4.    . . r.r.r.r.r.r.r.r.. . . . . . . . r.r.r.r.r.r.r.r.",
". . . . . . . . r.r.r.r.r.r.r.r.. . . . . . . . r.V.q q q q q q m n.m B.:.. . . r.r.r.r.r.r.r.r.. . . . . . . . r.r.r.r.r.r.r.r.",
". . . . . . . . r.r.r.r.r.r.r.r.. . . . . . . . r.a t q q q q q y a m.o.c.. . . r.r.r.r.r.r.r.r.. . . . . . . . r.r.r.r.r.r.r.r.",
". . . . . . . . r.r.r.r.r.r.r.r.. . . . . . . U B.& & & q q q q q q a i B.v.7 . r.r.r.r.r.r.r.r.. . . . . . . . r.r.r.r.r.r.r.r.",
". . . . . . . . r.r.r.r.r.r.r.r.. . . . . . #.] ..' 0 0 q q q q q q m ] V.V.v.. r.r.r.r.r.r.r.r.. . . . . . . . r.r.r.r.r.r.r.r.",
". . . . . . . . r.r.r.r.r.r.r.r.. . . . . . f i s s t q q q q q m m [ N.o.o.B.. r.r.r.r.r.r.r.r.. . . . . . . . r.r.r.r.r.r.r.r.",
"r.r.r.r.r.r.r.r.. . . . . . . . r.r.r.r.r.r.r.3.Y m q q q m Q m N N N o.M.d.t.e.. . . . . . . . r.r.r.r.r.r.r.r.. . . . . . . . ",
"r.r.r.r.r.r.r.r.. . . . . . . . r.r.r.r.r.r.r.r.# + . -.q y y y N m.e.e.t.t.r.r.. . . . . . . . r.r.r.r.r.r.r.r.. . . . . . . . ",
"r.r.r.r.r.r.r.r.. . . . . . . . r.r.r.r.r.r.r.r.. . . :.q q q q [ V.u.r.r.r.r.r.. . . . . . . . r.r.r.r.r.r.r.r.. . . . . . . . ",
"r.r.r.r.r.r.r.r.. . . . . . . . r.r.r.r.r.r.r.r.. . . p.q q q q } V.u.e.r.r.r.r.. . . . . . . . r.r.r.r.r.r.r.r.. . . . . . . . ",
"r.r.r.r.r.r.r.r.. . . . . . . . r.r.r.r.r.r.r.r.. . . j.q q q q | O.i.r.r.r.r.r.. . . . . . . . r.r.r.r.r.r.r.r.. . . . . . . . ",
"r.r.r.r.r.r.r.r.. . . . . . . . r.r.r.r.r.r.r.r.. . . 6.q q q q @.| x.r.r.r.r.r.. . . . . . . . r.r.r.r.r.r.r.r.. . . . . . . . ",
"r.r.r.r.r.r.r.r.. . . . . . . . r.r.r.r.r.r.r.r.. . . S q q q y 0.0.B.r.r.r.r.r.. . . . . . . . r.r.r.r.r.r.r.r.. . . . . . . . ",
"r.r.r.r.r.r.r.r.. . . . . . . . r.r.r.r.r.r.r.r.. . . s q q q r N.N.V.r.r.r.r.r.. . . . . . . . r.r.r.r.r.r.r.r.. . . . . . . . ",
". . . . . . . . r.r.r.r.r.r.r.r.. . . . . . . . r.r.t.a q q q r ^ V.l.. . . . . r.r.r.r.r.r.r.r.. . . . . . . . r.r.r.r.r.r.r.r.",
". . . . . . . . r.r.r.r.r.r.r.r.. . . . . . . . r.e.i.B q q q r } V.o.@ . . . . r.r.r.r.r.r.r.r.. . . . . . . . r.r.r.r.r.r.r.r.",
". . . . . . . . r.r.r.r.r.r.r.r.. . . . . . . . r.r.x.y q q q r | V.| 7 . . . . r.r.r.r.r.r.r.r.. . . . . . . . r.r.r.r.r.r.r.r.",
". . . . . . . . r.r.r.r.r.r.r.r.. . . . . . . . r.r...q q q q C | V.| ;.. . . . r.r.r.r.r.r.r.r.. . . . . . . . r.r.r.r.r.r.r.r.",
". . . . . . . . r.r.r.r.r.r.r.r.. . . . . . . . r.w.i t q q q D | V.| B.. . . . r.r.r.r.r.r.r.r.. . . . . . . . r.r.r.r.r.r.r.r.",
". . . . . . . . r.r.r.r.r.r.r.r.. . . . . . . . r.i.q q q q q D N B.N.V.. . . . r.r.r.r.r.r.r.r.. . . . . . . . r.r.r.r.r.r.r.r.",
". . . . . . . . r.r.r.r.r.r.r.r.. . . . . . . . r.m.q q q q q q } V.V.o.9 . . . r.r.r.r.r.r.r.r.. . . . . . . . r.r.r.r.r.r.r.r.",
". . . . . . . . r.r.r.r.r.r.r.r.. . . . . . . . r.o.q q q q q r | V.V.| a.. . . r.r.r.r.r.r.r.r.. . . . . . . . r.r.r.r.r.r.r.r.",
"r.r.r.r.r.r.r.r.. . . . . . . . r.r.r.r.r.r.r.r.5 i q q q q q q | C.C.| C.r.r.r.. . . . . . . . r.r.r.r.r.r.r.r.. . . . . . . . ",
"r.r.r.r.r.r.r.r.. . . . . . . . r.r.r.r.r.r.r.r.n.q q q q q q q N C.C.N.V.B.r.r.. . . . . . . . r.r.r.r.r.r.r.r.. . . . . . . . ",
"r.r.r.r.r.r.r.r.. . . . . . . . r.r.r.r.r.r.r.s.B q q n m q q r } C.o.C o.V.r.r.. . . . . . . . r.r.r.r.r.r.r.r.. . . . . . . . ",
"r.r.r.r.r.r.r.r.. . . . . . . . r.r.r.r.r.r.r.y.[ m q y q q h q N C.N.} N.V.r.r.. . . . . . . . r.r.r.r.r.r.r.r.. . . . . . . . ",
"r.r.r.r.r.r.r.r.. . . . . . . . r.r.r.r.r.r.r.s.| y q q q q 0 M } N.V.o.V.V.r.r.. . . . . . . . r.r.r.r.r.r.r.r.. . . . . . . . ",
"r.r.r.r.r.r.r.r.. . . . . . . . r.r.r.r.r.r.r.B.i q q q q q q N | C.V.N.@.V.b.r.. . . . . . . . r.r.r.r.r.r.r.r.. . . . . . . . ",
"r.r.r.r.r.r.r.r.. . . . . . . . r.r.r.r.r.e.c.<.q q q T e q b W | V.V.V.0.o.V.i.. . . . . . . . r.r.r.r.r.r.r.r.. . . . . . . . ",
"r.r.r.r.r.r.r.r.. . . . . . . . r.r.r.r.r.z.q.p q q >.M.! m A D ( C.V.V.V.N V.V.g . . . . . . . r.r.r.r.r.r.r.r.. . . . . . . . ",
". . . . . . . . r.r.r.r.r.r.r.r.. . . . -.k.C q q q k.N.~ D c C m.V.V.V.V.R V.V.V.i.r.r.r.r.r.r.. . . . . . . . r.r.r.r.r.r.r.r.",
". . . . . . . . r.r.r.r.r.r.r.r.. . . &.B.C 0 q q q C S N m h _ o.V.V.V.V.} o.V.V.B.t.r.r.r.r.r.. . . . . . . . r.r.r.r.r.r.r.r.",
". . . . . . . . r.r.r.r.r.r.r.r.. . .  .S N q q q q y N F N M N | V.V.V.V.| | o.V.V.x.r.r.r.r.r.. . . . . . . . r.r.r.r.r.r.r.r.",
". . . . . . . . r.r.r.r.r.r.r.r.. . . $.y y q q q q m N m N N [ | o.V.V.V.| N.N V V.t.r.r.r.r.r.. . . . . . . . r.r.r.r.r.r.r.r.",
". . . . . . . . r.r.r.r.r.r.r.r.. . .  .q ] m m n.n.m...) N N R | N.V.V.V.N.V.} N.V.h.r.r.r.r.r.. . . . . . . . r.r.r.r.r.r.r.r.",
". . . . . . . . r.r.r.r.r.r.r.r.. . O N q i y y o...o.| } [ [ [ | o.V.V.V.o.C i V V.B.r.r.r.r.r.. . . . . . . . r.r.r.r.r.r.r.r.",
". . . . . . . . r.r.r.r.r.r.r.r.. . : [ ] q 0 t s i $ % w i i i i s a a a N N m m.V.L w.r.r.r.r.. . . . . . . . r.r.r.r.r.r.r.r.",
". . . . . . . . r.r.r.r.r.r.r.r.. .   , i ] m ] ] ] ' ` ] ] ] ] m ] ] n.n.m.m.m.V.p P r.r.r.r.r.. . . . . . . . r.r.r.r.r.w.r.r.",
"r.r.r.r.r.r.r.r.. . . . . . . . r.r.r.z l - $ i | | | | | | E | [ N.N.V.V.V.a = p > . . . . . . r.r.r.r.r.r.r.r.. . . . . . . . ",
"r.r.r.r.r.r.r.r.. . . . . . . . r.r.r.w.P z z 2 * % % % % % $ % % = = - - 1 4 z >   . . . . . . r.r.r.r.r.r.r.r.. . . . . . . . ",
"r.r.r.r.r.r.r.r.. . . . . . . . r.r.r.r.3.%.x z : ; : : ; ; ; ; k z z z z z x I   . . . . . . . r.r.r.r.r.r.r.r.. . . . . . . . ",
"r.r.r.r.r.r.r.r.. . . . . . . . r.r.r.r.w.w.w.1.: : : : : : : : x x x x P %.3.3.. . . . . . . . r.r.r.r.r.r.r.r.. . . . . . . . ",
"r.r.r.r.r.r.r.r.. . . . . . . . r.r.r.r.r.r.r.r..     + o o X X %.1.2.3.3.w.r.r.. . . . . . . . r.r.r.r.r.r.r.r.. . . . . . . . ",
"r.r.r.r.r.r.r.r.. . . . . . . . r.r.r.r.r.r.r.r.. . . . .   .   w.r.r.r.e.r.r.r.. . . . . . . . r.r.r.r.r.r.r.r.. . . . . . . . ",
"r.r.r.r.r.r.r.r.. . . . . . . . r.r.r.r.r.r.r.r.. . . . . . . . r.r.r.r.r.r.r.r.. . . . . . . . r.r.r.r.r.r.r.r.. . . . . . . . ",
"r.r.r.r.r.r.r.r.. . . . . . . . r.r.r.r.r.r.w.t.. . . . . . . . r.r.r.r.r.r.r.r.. . . . . . . . r.r.r.r.r.r.r.r.. . . . . . . . "
};
