/* XPM */
static char *b1b2656a140b4869b3065a9ca5e56465P1PaVzSWCLm0uUsC[] = {
/* columns rows colors chars-per-pixel */
"64 64 96 2 ",
"   c #291F1E",
".  c #2F221C",
"X  c #33231A",
"o  c #36281E",
"O  c #392A1E",
"+  c #1F1F29",
"@  c #261F21",
"#  c #242126",
"$  c #2C2525",
"%  c #23222C",
"&  c #2A2529",
"*  c #2F2A2F",
"=  c #312620",
"-  c #332924",
";  c #3B2C20",
":  c #362C2D",
">  c #3B2F29",
",  c #3F3023",
"<  c #262731",
"1  c #292730",
"2  c #2C2A33",
"3  c #2D2F3A",
"4  c #322D36",
"5  c #342F38",
"6  c #373234",
"7  c #33313B",
"8  c #3B353D",
"9  c #423225",
"0  c #403128",
"q  c #413634",
"w  c #41393B",
"e  c #343743",
"r  c #373A45",
"t  c #3D3B45",
"y  c #3C3F4A",
"u  c #423B43",
"i  c #443F49",
"p  c #3F4350",
"a  c #46424B",
"s  c #48454F",
"d  c #454653",
"f  c #484650",
"g  c #474853",
"h  c #4A4954",
"j  c #454A58",
"k  c #4B4E5B",
"l  c #514E58",
"z  c #4D505D",
"x  c #51515E",
"c  c #4E5260",
"v  c #515564",
"b  c #545867",
"n  c #5A5863",
"m  c #555B6A",
"M  c #595F6E",
"N  c #605F68",
"B  c #5B616F",
"V  c #596070",
"C  c #5F6777",
"Z  c #646571",
"A  c #676A77",
"S  c #606878",
"D  c #636B7B",
"F  c #656B79",
"G  c #656C7C",
"H  c #666E7E",
"J  c #676F7F",
"K  c #686B78",
"L  c #6D717E",
"P  c #687080",
"I  c #6C7585",
"U  c #6D7585",
"Y  c #6F7889",
"T  c #707481",
"R  c #737A89",
"E  c #717A8B",
"W  c #737C8D",
"Q  c #797F8D",
"!  c #7A7F8D",
"~  c #788190",
"^  c #7B8493",
"/  c #7C8696",
"(  c #7F8999",
")  c #828998",
"_  c #808A9B",
"`  c #828C9C",
"'  c #838E9F",
"]  c #8691A2",
"[  c #8792A3",
"{  c #8A95A6",
"}  c #8C96A6",
"|  c #8D98A9",
" . c #909BAB",
".. c #929DAE",
"X. c #95A0B1",
"o. c #96A2B3",
/* pixels */
"9 9 9 9 9 9 9 9 9 9 9 9 9 9 9 9 9 9 9 9 9 9 9 9 9 9 9 9 9 9 9 9 9 9 9 9 9 9 9 9 9 9 9 9 9 9 9 9 9 9 9 9 9 9 9 9 9 9 9 9 9 9 9 9 ",
"9 9 9 9 9 9 9 9 q 9 9 9 9 9 9 9 9 9 9 9 9 q 9 9 9 9 9 9 9 9 9 9 9 9 9 9 9 9 9 9 9 9 9 9 9 9 9 9 9 9 9 9 9 9 9 9 9 9 9 9 9 9 9 9 ",
"9 9 9 9 9 9 9 9 9 9 9 9 9 9 9 9 9 9 9 9 9 9 9 9 9 9 9 9 9 9 9 9 9 9 9 9 9 9 9 9 9 9 9 9 9 9 9 9 9 9 9 9 9 9 9 9 9 9 9 9 9 9 9 9 ",
"9 9 9 9 9 9 9 9 9 9 9 9 9 9 q 9 9 9 9 9 9 9 9 9 9 9 q 9 9 9 9 9 9 9 9 9 9 9 9 9 9 9 9 9 9 9 9 9 9 9 9 9 9 9 9 9 9 9 9 9 9 9 9 9 ",
"9 9 9 9 9 9 9 9 9 9 9 9 9 9 9 9 9 9 9 9 9 9 9 9 9 9 9 9 9 9 9 9 9 9 9 9 9 9 9 9 9 9 9 9 9 9 9 9 9 9 9 9 9 9 9 9 9 9 9 9 9 9 9 9 ",
"9 9 9 9 9 9 , 9 , 9 9 , 9 9 9 9 , 9 9 , 9 9 9 9 9 9 , , 9 9 , 9 9 9 , 9 9 9 9 9 9 , 9 , 9 , 9 , 9 9 9 , 9 9 , , 9 , 9 9 9 9 9 9 ",
"9 ; ; ; O ; ; ; ; ; ; ; ; ; 9 9 ; ; O ; O ; ; ; 9 , , ; O ; ; ; O ; ; ; ; , 9 9 ; ; ; ; ; ; ; ; 9 9 9 ; O ; ; ; O ; ; ; O , 9 9 ",
"; ; ; ; O ; ; ; ; ; ; ; ; ; , 9 ; ; ; ; ; ; ; ; 9 9 ; ; ; ; ; ; ; ; ; ; ; , 9 9 ; ; ; O ; ; ; , 9 9 , ; ; ; ; ; ; ; ; ; ; 9 9 9 ",
"9 9 9 9 , 9 9 9 9 , 9 9 9 9 9 , 9 9 9 9 9 9 9 9 9 9 9 9 , 9 9 9 9 , 9 , 9 9 9 9 9 9 , , 9 9 9 9 9 9 9 9 9 9 9 9 9 , 9 9 9 9 9 9 ",
"9 9 9 9 9 9 9 9 9 9 9 9 9 9 9 9 9 9 9 9 9 9 9 9 9 9 9 9 9 9 9 9 9 9 9 9 9 9 9 9 9 9 9 9 9 9 9 9 9 9 9 9 9 9 9 9 9 9 9 9 9 9 9 9 ",
"9 9 9 9 9 9 9 9 9 9 9 9 9 9 9 9 9 9 9 9 9 9 9 9 9 9 9 9 9 9 9 9 9 9 9 9 9 9 9 9 9 9 9 9 9 9 9 9 9 9 9 9 9 9 9 9 9 9 9 9 9 9 9 9 ",
"9 9 9 9 9 9 9 9 9 9 9 9 9 9 9 9 9 9 9 9 9 9 9 9 9 9 9 9 9 9 9 9 9 9 9 9 9 9 9 9 9 9 9 9 9 9 9 9 9 9 9 9 9 9 9 9 9 9 9 9 9 9 9 9 ",
"9 9 9 9 9 9 9 9 9 9 9 9 9 9 9 9 9 9 9 9 9 9 9 9 9 9 9 9 9 9 9 9 9 9 9 9 9 9 9 9 9 9 9 9 9 9 9 9 9 9 9 9 9 9 9 9 9 9 9 9 9 9 9 9 ",
"9 9 9 9 , , 9 9 9 , 9 , 9 9 9 9 , , 9 9 9 , 9 , 9 9 9 9 , , 9 9 9 9 9 9 , 9 9 , 9 9 9 9 , 9 , , 9 9 9 9 , 9 9 , 9 , 9 , 9 9 9 9 ",
"; ; ; ; ; ; O ; ; ; ; ; ; ; , O ; ; ; ; ; ; ; ; ; ; ; ; ; ; ; ; ; ; ; ; ; ; ; ; ; ; ; ; ; ; ; ; O O O , O ; ; ; O ; O , ; O , O ",
"; ; ; ; ; ; ; ; ; ; ; ; ; ; ; ; ; ; ; ; ; O O O O O O ; O O O O ; O O O O O O O ; ; O O O ; ; ; , , O O , O ; ; ; ; ; ; ; , O ; ",
", , 9 9 9 9 9 9 9 9 9 9 9 , 9 9 9 9 9 9 9 9 9 0 - = = O o = . . = = - O - X $ = - - = $ ; 0 9 9 , , , , 9 9 9 9 9 , 9 9 9 9 9 9 ",
"9 9 9 9 9 9 9 9 9 9 9 9 9 9 9 9 9 9 9 9 9 w w w : # = O $ # # # # # X O $ # # # # # # # - 9 9 9 9 9 9 9 9 9 9 9 9 9 9 9 9 9 9 9 ",
"9 9 9 9 9 9 9 9 9 9 9 9 9 9 9 9 9 9 9 9 q u h l d y 5 = # + 3 p p y 6 X # # 3 y p y 7 % $ > 9 9 9 9 9 9 9 9 9 9 9 9 9 9 9 9 9 9 ",
"9 9 9 9 9 9 9 9 9 9 9 9 9 9 9 9 9 9 9 9 q i Z ) / R h @ # + k ~ ~ ~ k # # + k R ~ ~ v % $ 9 9 9 9 9 9 9 9 9 9 9 9 9 9 9 9 9 9 9 ",
"9 9 9 9 9 9 9 9 9 9 9 9 9 9 9 9 9 9 9 9 q i T X.| ( v 1 2 3 S o.| ] m % % & B  .} ) b % $ 0 9 9 9 9 9 9 9 9 9 9 9 9 9 9 9 9 9 9 ",
", 9 , , 9 9 9 9 9 , 9 , 9 ; 9 9 9 0 9 0 q i T X./ G k 5 y z Y X.( P k 8 8 8 F ..! n t % $ O ; ; , 9 , , 9 9 9 9 9 9 , 9 9 9 9 9 ",
"; ; ; ; ; ; , ; ; ; ; ; ; ; ; ; O O X X : t L ..W B k f c V Y ] R M v s s a A ' F i 7 #   X X X O X O , O O O O O ; ; ; O , , O ",
"; ; ; ; ; ; ; ; ; ; ; ; ; ; ; ; O O X X @ 4 K ..E V m b m V C P C M m v v b M H b i 4 #     X X X X O O O , , O ; ; O , O O O , ",
"9 , 9 , 9 9 9 9 9 9 , 9 9 9 9 9 9 9 9 O $ < M ' U V V V V V V V V V V V V V m v g u 5 % # X O O O 9 9 9 , 9 9 9 9 , 9 9 9 9 9 9 ",
"9 9 9 9 9 9 9 9 9 9 9 9 9 9 9 9 9 9 0 9 & < j P S V V V V V V V V V V V V V z f i u 4 @ $ - O O 9 9 9 9 9 9 9 9 9 9 9 9 9 9 9 9 ",
"9 9 9 9 9 9 9 9 9 9 9 9 9 9 9 9 9 9 9 9 - & y c b V V V V V V V V V V V m v g u 8 8 4 # $ o O O 9 9 9 9 9 9 9 9 9 9 9 9 9 9 9 9 ",
"9 9 9 9 9 9 9 9 9 9 9 9 9 9 9 9 9 9 9 9 ; > 4 5 j V V V V V V V V V V V x f i u 7 1 $ = o O O O 9 9 9 9 9 9 9 9 9 9 9 9 9 9 9 9 ",
"9 9 9 9 9 9 9 9 9 9 9 9 9 9 9 9 9 9 9 9 9 9 - & r z b V V V V V V V m v g w 8 8 $     O O O O O , 9 9 9 9 9 9 9 9 9 9 9 9 9 9 9 ",
"9 9 , 9 9 9 9 , 9 9 9 9 9 9 9 , 9 9 ; 9 9 ; X X & e j V V V V V V V x f i u 5 1   . X X O X O X O , , 9 , 9 9 9 9 9 , 9 9 9 9 9 ",
", ; ; ; ; ; ; ; ; ; ; ; O ; ; ; O O X X X X X X @ < y V V V V V V V x i i u 4 @   X X X X X X X X O O O ; ; ; O O ; ; ; O ; ; ; ",
"; ; ; ; ; ; ; O ; ; ; ; ; ; ; ; O O o X X X X   @ % p V V V V V V V m v f t 3 @ . X X X X X X X X X O , ; ; ; ; ; ; ; O , ; ; ; ",
"9 9 9 9 9 9 9 9 9 9 9 9 9 9 9 9 9 9 O 9 ; ; O X @ < i V V V V V V V m m h u 2 @ & X 0 0 O O 9 9 9 ; 9 9 9 9 9 9 9 9 9 9 9 9 9 9 ",
"9 9 9 9 9 9 9 9 9 9 9 9 9 9 9 9 9 9 9 9 9 9 ; O 5 e k V V V V V V V x f i u 3 %   ; 9 9 9 9 9 9 0 9 9 9 9 9 9 9 9 9 9 9 9 9 9 9 ",
"9 9 9 9 9 9 9 9 9 9 9 9 9 9 9 9 9 9 9 9 0 9 > > i l v V V V V V V V z i u u 4 < & - 0 9 9 9 9 9 9 9 9 9 9 9 9 9 9 9 9 9 9 9 9 9 ",
"9 9 9 9 9 9 9 9 9 9 9 9 9 9 9 9 9 9 9 9 0 9 > 8 M ! P V V V V V V V m v i u t 5 2 @ = 0 9 9 9 9 9 9 9 9 9 9 9 9 9 9 9 9 9 9 9 9 ",
"9 9 9 9 9 9 9 9 9 9 9 9 9 9 9 9 9 9 9 9 9 9 : u K [ T B V V V m m m m m h u u u 5 + & 0 9 9 9 9 9 9 9 9 9 9 9 9 9 9 9 9 9 9 9 9 ",
"9 9 9 9 9 9 9 9 9 9 9 9 9 9 9 9 9 9 O 9 9 ; $ 4 x I S V V V c i f i f f i u u u 5 % & ; O 0 O 0 9 9 9 9 9 9 9 9 9 9 9 9 9 9 9 9 ",
"; ; O O ; O ; ; ; O O O ; ; 9 O O O X X = . * r k V V V V V c y i i i i i i u u 5 @ @   X X X X X X O O O ; ; O O O ; ; ; ; O ; ",
"; ; ; ; ; ; ; ; ; ; ; ; O O O O 9 O X X @ & l U H V V V V V m c v v x v v v f u u 5 * @   X X X X X O O O ; ; ; ; O ; ; ; ; ; ; ",
"9 9 9 9 9 9 9 9 9 9 > 9 9 9 9 9 9 O 9 ; $ < S ..! P P P P m V V V V V V V V k u u u 5 @   ; O X ; ; 9 9 9 9 9 9 9 9 9 9 9 9 9 9 ",
"9 9 9 9 9 9 9 9 9 9 9 9 9 9 9 9 9 9 9 9 $ 1 S X.{ ( ( ( I V V V V V V V V V k u u u e %   0 0 ; 9 9 9 9 9 9 9 9 9 9 9 9 9 9 9 9 ",
"9 9 9 9 9 9 9 9 9 9 9 9 9 9 9 9 9 9 9 9 & < M } { { { { Y V V V V V m b m m i u u t 2 @ $ 0 0 O 9 9 9 9 9 9 9 9 9 9 9 9 9 9 9 9 ",
"9 9 9 9 9 9 9 9 9 9 9 9 9 9 9 9 9 9 9 9 - % k U I I U U P m V V V V x f i h i u u u e +   0 O O 9 9 9 9 9 9 9 9 9 9 9 9 9 9 9 9 ",
"9 9 9 9 9 9 9 9 9 9 9 9 9 9 9 9 9 9 , > & % y b b b v b v b v c b b d e 8 t e t 5 u e + @ > 0 O 9 9 9 9 9 9 9 9 9 9 9 9 9 9 9 9 ",
"9 9 9 9 9 9 9 9 9 9 9 9 9 9 9 9 9 ; 9 > $ % 2 e e r e e e e e e e e e 2 1 1 2 2 1 % % @ @ o O X O ; 9 9 9 9 9 9 9 9 9 9 9 9 9 9 ",
"O O ; ; ; O O ; ; ; O ; O O ; ; O O X X @ @ @ + + + + @ + + @ @ + @ + @ @ @ + @ @ % + % @ . X X X X O O ; ; ; ; O O ; ; ; ; ; ; ",
"; ; ; ; ; ; ; ; ; ; ; ; ; ; ; ; ; O X X X X @ & . .   =   @ . .   . @ . . . @ .   . . . X X X X X X O O ; ; ; O ; ; ; ; ; ; O ; ",
"9 9 9 9 9 9 9 9 9 9 9 9 9 9 9 9 9 9 9 ; 9 ; 9 9 ; 9 O 9 9 O 9 0 9 O 9 9 9 O 9 ; 9 ; 9 9 ; 9 ; , 9 ; 9 9 9 9 9 9 9 ; 9 9 9 9 9 9 ",
"9 9 9 9 9 9 9 9 9 9 9 9 9 9 9 9 9 9 9 9 9 9 9 9 9 9 9 9 9 9 9 9 9 9 9 9 9 9 9 9 9 9 9 9 9 9 9 9 9 9 9 9 9 9 9 9 9 9 9 9 9 9 9 9 ",
"9 9 9 9 9 9 9 9 9 9 9 9 9 9 9 9 9 9 9 9 9 9 9 9 9 9 9 9 9 9 9 9 9 9 9 9 9 9 9 9 9 9 9 9 9 9 9 9 9 9 9 9 9 9 9 9 9 9 9 9 9 9 9 9 ",
"9 9 9 9 9 9 9 9 9 9 9 9 9 9 9 9 9 9 9 9 9 9 9 9 9 9 9 9 9 9 9 9 9 9 9 9 9 9 9 9 9 9 9 9 9 9 9 9 9 9 9 9 9 9 9 9 9 9 9 9 9 9 9 9 ",
"9 9 9 9 9 9 9 9 9 9 9 9 9 9 9 9 9 9 9 9 9 9 9 9 9 9 9 9 9 9 9 9 9 9 9 9 9 9 9 9 9 9 9 9 9 9 9 9 9 9 9 9 9 9 9 9 9 9 9 9 9 9 9 9 ",
"9 9 9 9 9 9 9 9 9 9 9 9 9 9 9 9 9 9 9 ; 9 9 9 9 9 9 9 9 9 9 9 9 9 9 9 9 9 9 9 9 9 9 9 9 9 9 9 9 9 9 9 9 9 9 9 9 9 9 9 9 9 9 9 9 ",
"O ; ; ; O ; ; ; O ; ; ; ; ; O ; ; ; ; ; ; O ; ; 9 ; O O O 9 O O 9 O O O ; ; ; ; ; ; O O ; ; ; ; ; ; ; ; O ; ; ; O ; ; ; ; ; ; ; ",
"; ; ; ; O ; ; O ; O O ; ; ; ; ; ; ; ; ; ; ; ; ; O O 9 O O O O 0 O O 9 O ; ; ; ; ; ; ; O ; ; ; ; ; ; ; ; O ; ; ; ; ; ; ; ; ; ; ; ",
"9 9 9 9 9 9 9 9 9 9 9 9 9 9 9 9 9 9 9 9 9 ; 9 9 9 9 9 9 9 9 9 9 9 9 9 9 9 9 9 9 9 9 9 9 9 9 9 9 9 9 9 9 9 9 9 9 , 9 9 9 9 9 9 9 ",
"9 9 9 9 9 9 9 9 9 9 9 9 9 9 9 9 9 9 9 9 9 9 9 9 9 9 9 9 9 9 9 9 9 9 9 9 9 9 9 9 9 9 9 9 9 9 9 9 9 9 9 9 9 9 9 9 9 9 9 9 9 9 9 9 ",
"9 9 9 9 9 9 9 9 9 9 9 9 9 9 9 9 9 9 9 9 9 9 9 9 9 9 9 9 9 9 9 9 9 9 9 9 9 9 9 9 9 9 9 9 9 9 9 9 9 9 9 9 9 9 9 9 9 9 9 9 9 9 9 9 ",
"9 9 9 9 9 9 9 9 9 9 9 9 9 9 9 9 9 9 9 9 9 9 9 9 9 9 9 9 9 9 9 9 9 9 9 9 9 9 9 9 9 9 9 9 9 9 9 9 9 9 9 9 9 9 9 9 9 9 9 9 9 9 9 9 ",
"9 9 9 9 9 9 9 9 9 9 9 9 9 9 9 9 9 9 9 9 9 9 9 9 9 9 9 9 9 9 9 9 9 9 9 9 9 9 9 9 9 9 9 9 9 9 9 9 9 9 9 9 9 9 9 9 9 9 9 9 9 9 9 9 ",
"9 9 9 9 9 9 9 ; 9 9 9 9 9 9 9 9 9 9 9 9 9 9 9 9 9 9 9 9 9 ; 9 9 9 9 9 9 9 9 9 9 9 9 9 ; 9 ; 9 9 9 9 9 9 9 9 9 ; , 9 9 9 9 9 9 9 ",
"; ; ; ; ; ; ; O O ; ; ; O ; ; ; ; ; 0 O O O 9 O O O O O O 0 O 9 X O 9 O 9 O O O ; ; ; ; ; ; ; ; ; ; ; ; ; ; ; ; ; O ; O ; ; ; ; ",
"O O O O O O O O O O O O O O O O O O X O O O O O O O O O O O O O O O O O X O O O O O O O O O O O O O O O O O O O O O O O O O O O "
};
