/* XPM */
static char *ea6b9e82271f41dca1b35b8b5e55cfe2XLu4Edw1chs3gFkc[] = {
/* columns rows colors chars-per-pixel */
"64 64 11 1 ",
"  c #302118",
". c #33231A",
"X c #35251B",
"o c #36271C",
"O c #38281D",
"+ c #392A1E",
"@ c #3B2C20",
"# c #3E2F22",
"$ c #3F3023",
"% c #403024",
"& c #433326",
/* pixels */
"&&&&&&&&&&&&&&&&&&&&&&&&&&&&&&&&&&&&&&&&&&&&&&&&&&&&&&&&&&&&&&&&",
"&&&&&&&&&&&&&&&&&&&&&&&&&&&&&&&&&&&&&&&&&&&&&&&&&&&&&&&&&&&&&&&&",
"&&&&&&&&&&&&&&&&&&&&&&&&&&&&&&&&&&&&&&&&&&&&&&&&&&&&&&&&&&&&&&&&",
"&&&&&&&&&&&&&&&&&&&&&&&&&&&&&&&&&&&&&&&&&&&&&&&&&&&&&&&&&&&&&&&&",
"&&&&&&&&&&&&&&&&&&&&&&&&&&&&&&&&&&&&&&&&&&&&&&&&&&&&&&&&&&&&&&&&",
"&&&&&&&&&&&&#&&&&&&&&&&#&&&&&&&&&&&&&&&&&&&&&&&#&&&&&&&&&&&&#&&&",
"@@@@@@@@@@@@@@@@@@@@@@@@@@@@@@@@@@@@@@@@@@@@@@@@@@@@@@@@@@@@@@@@",
"@@@@@@@@@@@@@@@@@@@@@@@@@@@@@@@@@@@@@@@@@@@@@@@@@@@@@@@@@@@@@@@@",
"&&#&&&&&&&&&&&&&&&##&&&&&&&&#&&&&&&&&&##&&&#&&&&&&#&&&&&&&&&&&&&",
"&&&&&&&&&&&&&&&&&&&&&&&&&&&&&&&&&&&&&&&&&&&&&&&&&&&&&&&&&&&&&&&&",
"&&&&&&&&&&&&&&&&&&&&&&&&&&&&&&&&&&&&&&&&&&&&&&&&&&&&&&&&&&&&&&&&",
"&&&&&&&&&&&&&&&&&&&&&&&&&&&&&&&&&&&&&&&&&&&&&&&&&&&&&&&&&&&&&&&&",
"&&&&&&&&&&&&&&&&&&&&&&&&&&&&&&&&&&&&&&&&&&&&&&&&&&&&&&&&&&&&&&&&",
"&&&&&&&###&&&&&&&&&&&&&&&&&&&&&&&&&&&&&&&&&###&&&&&&&&&###&&&&&&",
"@@@@@@@@@@@@@@@@@@@@@@@@@@@@@@@@@@@@@@@@@@@@@@@@@@@@@@@@@@@@@@@@",
"@@@@@@@@@@@@@@@@@@@@@++++++++++++++++++++++++@@@@@@@@@@@@@@@@@@@",
"&&##&&&&&&##&&&&&&&&&#++++++++++++++++++##++#&&&&&##&&&&&&##&&&&",
"&&&&&&&&&&&&&&&&&&&&&&@++++++++++++++++@&&@@&&&&&&&&&&&&&&&&&&&&",
"&&&&&&&&&&&&&&&&&&&&&&@++++++++++++++++@&&@@&&&&&&&&&&&&&&&&&&&&",
"&&&&&&&&&&&&&&&&&&&&&&@++++++++++++++++@&&@@&&&&&&&&&&&&&&&&&&&&",
"&&&&&&&&&&&&&&&&&&&&&&@++++++++++++++++@&&+@#&&&&&&&&&&&&&&&&&&&",
"&&&&&&&&&&&&&&&&#####@+oXXXoooooooXoooo+@@oo@#####$&&&&&&&&&&&&&",
"@@@@@@@@@@@@@@@@@+X..............................X+@@@@@@@@@@@@@",
"@@@@@@@@@@@@@@@@@+X..............................X+@@@@@@@@@@@@@",
"&#&&&&&&&&&&&&##&$#####@++@@+oooooooooooooooooo+@#$&&#&&&&&&&&##",
"&&&&&&&&&&&&&&&&&&&&&&&&@@&&@++++++++++++++++++@&&&&&&&&&&&&&&&&",
"&&&&&&&&&&&&&&&&&&&&&&&&@@&&@++++++++++++++++++@&&&&&&&&&&&&&&&&",
"&&&&&&&&&&&&&&&&&&&&&&&&@@&&@++++++++++++++++++@&&&&&&&&&&&&&&&&",
"&&&&&&&&&&&&&&&&&&&&&&&&++#$@++++++++++++++++++@&&&&&&&&&&&&&&&&",
"&&&&&&&&&&&&&&&&&$#####@oo+@+oooooXXXXooooooooo+@#$&&&&&&&&&#&&&",
"@@@@@@@@@@@@@@@@@+X..............................X+@@@@@@@@@@@@@",
"@@@@@@@@@@@@@@@@@+X..............................X+@@@@@@@@@@@@@",
"&&#&&&&&&&&#&&&&&$###@+ooooooooooooooo@+oo@#######$&&&&#&&&&&&&&",
"&&&&&&&&&&&&&&&&&&&&&&@++++++++++++++@##@@&&&&&&&&&&&&&&&&&&&&&&",
"&&&&&&&&&&&&&&&&&&&&&&@+++++++++++++++&&@@&&&&&&&&&&&&&&&&&&&&&&",
"&&&&&&&&&&&&&&&&&&&&&&@++++++++++++++@&&@@&&&&&&&&&&&&&&&&&&&&&&",
"&&&&&&&&&&&&&&&&&&&&&#@++++++++++++++@&&@@&&&&&&&&&&&&&&&&&&&&&&",
"&&&&&&&#&&&&&&&&&$###@+oooooooooooooX+@@++@#######$&&&&&#&&&&&&#",
"@@@@@@@@@@@@@@@@@+X..............................X+@@@@@@@@@@@@@",
"@@@@@@@@@@@@@@@@@+X..............................X+@@@@@@@@@@@@@",
"&&##&&&&&&&&#&&&&$#####@++@@+oooooooooooooo+@@++@#$&&&##&&##&&&&",
"&&&&&&&&&&&&&&&&&&&&&&&&@@&&@++++++++++++++@&&@@&&&&&&&&&&&&&&&&",
"&&&&&&&&&&&&&&&&&&&&&&&&@@&&@++++++++++++++@&&@@&&&&&&&&&&&&&&&&",
"&&&&&&&&&&&&&&&&&&&&&&&&@@&&@++++++++++++++@&&@@&&&&&&&&&&&&&&&&",
"&&&&&&&&&&&&&&&&&&&&&&&&+@&&@++++++++++++++@&&@@&&&&&&&&&&&&&&&&",
"&&&&&&&&&&&&&&&&&$#####@oo@@+oooooooooooooo+@@++@#$&&&&&&&&&&&&&",
"@@@@@@@@@@@@@@@@@+X..............................X+@@@@@@@@@@@@@",
"@@@@@@@@@@@@@@@@@+X..............................X+@@@@@@@@@@@@@",
"&#&&&&&&&&&&&&##&$################################$&&&&&&&&&&&##",
"&&&&&&&&&&&&&&&&&&&&&&&&&&&&&&&&&&&&&&&&&&&&&&&&&&&&&&&&&&&&&&&&",
"&&&&&&&&&&&&&&&&&&&&&&&&&&&&&&&&&&&&&&&&&&&&&&&&&&&&&&&&&&&&&&&&",
"&&&&&&&&&&&&&&&&&&&&&&&&&&&&&&&&&&&&&&&&&&&&&&&&&&&&&&&&&&&&&&&&",
"&&&&&&&&&&&&&&&&&&&&&&&&&&&&&&&&&&&&&&&&&&&&&&&&&&&&&&&&&&&&&&&&",
"&&&&&&&&&&&&#&&&&&&&&&&&&&&&#&&&&&&&&&&&&&&&#&&&&&&&&&&&&&&&#&&&",
"@@@@@@@@@@@@@@@@@@@@@@@@@@@@@@@@@@@@@@@@@@@@@@@@@@@@@@@@@@@@@@@@",
"@@@@@@@@@@@@@@@@@@@@@@@@@@@@@@@@@@@@@@@@@@@@@@@@@@@@@@@@@@@@@@@@",
"&&#&&&&&&&&&&&&&&&#&&&&&&&&&&&&&&&#&&&&&&&&&&&&&&&#&&&&&&&&&&&&&",
"&&&&&&&&&&&&&&&&&&&&&&&&&&&&&&&&&&&&&&&&&&&&&&&&&&&&&&&&&&&&&&&&",
"&&&&&&&&&&&&&&&&&&&&&&&&&&&&&&&&&&&&&&&&&&&&&&&&&&&&&&&&&&&&&&&&",
"&&&&&&&&&&&&&&&&&&&&&&&&&&&&&&&&&&&&&&&&&&&&&&&&&&&&&&&&&&&&&&&&",
"&&&&&&&&&&&&&&&&&&&&&&&&&&&&&&&&&&&&&&&&&&&&&&&&&&&&&&&&&&&&&&&&",
"&&&&&&&###&&&&&&&&&&&&&###&&&&&&&&&&&&&###&&&&&&&&&&&&&###&&&&&&",
"@@@@@@@@@@@@@@@@@@@@@@@@@@@@@@@@@@@@@@@@@@@@@@@@@@@@@@@@@@@@@@@@",
"++++++++++++++++++++++++++++++++++++++++++++++++++++++++++++++++"
};
