/* XPM */
static char *c1f9aac81bed4e33a0fb7b4325f0c7f540ORdnBeiKiP5pL1[] = {
/* columns rows colors chars-per-pixel */
"64 64 23 1 ",
"  c #0F1A1B",
". c #101C1E",
"X c #111E1F",
"o c #142224",
"O c #162527",
"+ c #162627",
"@ c #172729",
"# c #18282A",
"$ c #192A2C",
"% c #1A2B2D",
"& c #1B2B2D",
"* c #1C2E30",
"= c #1D2E30",
"- c #1D2F31",
"; c #1E3032",
": c #1E3133",
"> c #1E3233",
", c #1F3234",
"< c #203436",
"1 c #203537",
"2 c #213638",
"3 c #223739",
"4 c #243A3C",
/* pixels */
"4444444444444<$@$:**,*---**-**$$*4444444444444::,444444444444:O ",
"4444444444444<$#*:*,-*,,,,--,,$$,4444444444444::4444444444444:o ",
"4444444444444<$#:4,4,44,,4,4,,$$,4444444444444::444444444444,:o ",
"4444444444444<&$4444444444444,*$,444444444444,::,444444444444:@ ",
"44444444444443;;,444444444444,**,4444444444444::4444444444444,*O",
"44444444444443;;44444444444444::4444444444444,::4444444444444,*O",
"4444444444444<,;44444444444444,:44444444444444::,444444444444,$O",
"44444444444443;>,4444444444444,,,444444444444,::4444444444444,$O",
"44444444444443>>44444444444444::4444444444444,,:,444444444444,*O",
"44444444444444;;,444444444444,::44444444444444,:4444444444444,*O",
"44444444444443>;4444444444444,::,4444444444444::4444444444444,$O",
"44444444444443>>44444444444444:,4444444444444,:,,444444444444,$O",
"44444444444443;>4444444444444,,,44444444444444-,4444444444444,*$",
",4,44,,433333>>;,,4,,44,,4,44,,,,,,4,4,4444,4:--,44,4,,444,,,,$O",
">,,>;,>,;;;>;;;;::::,,::::,,,*-*,,::,::::::::,*-::,,::::,,::**$O",
">>>,>,;;>,;;,;;%:::::::::,,,---*,,::,::::::::**-*:,,:::::,:::*@O",
"4,,44,4,,4,44,:*,4,4,44,44,4,,*,,,44,4,44,444:::,,4444,4,44,4,$@",
"44444444444444::,4444444444444::4444444444444:::4444444444444,$@",
"44444444444444,:44444444444444::,4444444444444::,444444444444,$@",
"4444444444444,,,44444444444444::4444444444444,::4444444444444-$@",
"44444444444444,-44444444444444::44444444444444::,444444444444,*@",
"4444444444444,,,,444444444444,::,4444444444444::4444444444444,$@",
"4444444444444,-,44444444444444::4444444444444,::4444444444444,$@",
"44444444444444,,4444444444444,::44444444444444::,444444444444,$O",
"44444444444444,>,444444444444,,:44444444444444::,444444444444,*@",
"4444444444444,,,44444444444444,:,444444444444,>>4444444444444,$o",
"44444444444444,-44444444444444::4444444444444,,>,444444444444,O ",
"4444444444444,,,,444444444444,:,,4444444444444,>4444444444444*o ",
"4444444444444,-,44444444444444-,,444444444444,::4444444444444:@ ",
",4,,44,,444,4,--,,,4444,4,,44,-*,4,4444,4,,44::-,44,4,,44,4,,*o ",
"*$-->>,,,,--,,-*,,::::::::::::*>,>::::::::::::--::>>>>>>,,--$O. ",
"%---,,,->,,,,,--,,::::::::::::**::::::::::::::--:::>>>>>>>--$@. ",
"2,,424,424,442::,44,44,4,44,,4::,4,444,4,4,44::::,4444,44,4:::@.",
"4444444444444,:,,444444444444,,,,4444444444444::4444444444444:o.",
"44444444444442::44444444444444:*44444444444444::,444444444444:$o",
"44444444444442,*44444444444444,:4444444444444:::4444444444444:$@",
"44444444444442::,4444444444444*:,4444444444444::4444444444444::@",
"44444444444444:,44444444444444*,4444444444444,::,444444444444:$@",
"4444444444444,::4444444444444,:,44444444444444::4444444444444,$o",
"44444444444444,,,4444444444444,,,4444444444444::,444444444444:$@",
"44444444444443:*4444444444444,:*4444444444444,,:4444444444444,*@",
"44444444444443,:44444444444444,:44444444444444,:,444444444444,$@",
"44444444444443::,444444444444,,,,4444444444444::4444444444444,$o",
"44444444444443*,44444444444444*,4444444444444:::4444444444444:$$",
"44444444444442::,4444444444444,-,4444444444444::,444444444444,*$",
"4,424224,4434,::,424,4,4,444,,-,:4,4444,,4,44:*:,4,44,4,44,,,,$@",
":*:,::::,:,:::**::*,::,:,-,*,,--:::::::::::::::*::,,:::::::::*@@",
":,:,*:::*,*,*:*::>:>::::-,*,,,**::::::::::::::**::,,:::::::::*@O",
"24,424,424,42,:,,44,4,44,44,4,::,4,44,44,4,44,::,,4,4,44,44,4,*@",
"44444444444444::44444444444444*,44444444444444-:4444444444444,$@",
"4444444444444,*,,444444444444,*,4444444444444,:,4444444444444,$o",
"44444444444444::44444444444444,*,4444444444444:,4444444444444:$@",
"44444444444442::,4444444444444:,4444444444444,>:,444444444444,*@",
"44444444444444,*4444444444444,,*,4444444444444,>4444444444444,$@",
"44444444444444::44444444444444,,44444444444444,-4444444444444,$O",
"44444444444442:,,4444444444444,*4444444444444,::,444444444444:$O",
"44444444444444:,4444444444444,,-,4444444444444-,4444444444444,*@",
"4444444444444,*:44444444444444-,4444444444444,>>4444444444444,$o",
"4444444444444,,:,4444444444444,-,4444444444444:-,444444444444,O ",
"44444444444444,:4444444444444,*,44444444444444:>4444444444444*o ",
"44444444444444:*,4444444444444,,,444444444444,:,,444444444444,@ ",
",43,,44,,4,44,::,44,,4,4444,,,,>44,44,244,,44,*:,4,4,,4,44,,,*o ",
"$$,,:--,,,,-*,*::--,,,,--,,:,-**>::-::>*--:,,,**::,,::::,,**$@  ",
"@@$:--------****----------**-*******--*:*---*****::,**:*:**$$o. "
};
