/* XPM */
static char *dc621fbd568c4fe19b73cb7176136fc0zapXTFMMvpdjMAnS[] = {
/* columns rows colors chars-per-pixel */
"64 64 64 1 ",
"  c #2F2E2F",
". c #302E34",
"X c #322E39",
"o c #332E3C",
"O c #342E3F",
"+ c #39333A",
"@ c #352E41",
"# c #362E44",
"$ c #382E49",
"% c #3A2E4F",
"& c #3F3540",
"* c #3B2E51",
"= c #3E2F5A",
"- c #3F305A",
"; c #443846",
": c #493A4C",
"> c #493A53",
", c #4F3D52",
"< c #41315B",
"1 c #44335C",
"2 c #45345D",
"3 c #4A375F",
"4 c #4B385F",
"5 c #543F58",
"6 c #463460",
"7 c #4D3960",
"8 c #4F3967",
"9 c #503B61",
"0 c #533D62",
"q c #543E63",
"w c #5A425E",
"e c #564064",
"r c #584166",
"t c #5F4564",
"y c #5B4269",
"u c #5E446B",
"i c #5D4070",
"p c #64476A",
"a c #61456E",
"s c #644771",
"d c #614374",
"f c #674873",
"g c #6A4A70",
"h c #6A4A76",
"j c #6F4C76",
"k c #6A487A",
"l c #6D4B79",
"z c #704C7B",
"x c #734E7E",
"c c #744F7C",
"v c #734D81",
"b c #764F80",
"n c #795183",
"m c #7C5286",
"M c #7F5488",
"N c #82558B",
"B c #85578E",
"V c #885B90",
"C c #917887",
"Z c #9A709A",
"A c #A1799F",
"S c #A38697",
"D c #AC85A5",
"F c #BE9BB0",
/* pixels */
"                                                                ",
" VBBBBBBFSBBBaBBeBBD ZBBBBBBBA ABBBhBxBBBCFBBBeBBBBSFBBBeBBrBBBF",
" BeeeyeMBcBeBeeaeeeb fefeeBeeB BeheeBeeeegBeBeeaeeBcBMeMereeeBBB",
" Ne-=====*===9e===== ========= ====e=====%=========*====eq===eee",
" qe=====  =========o $=======# #=========  ========  =========e=",
" NBBBBBBBBBBBB  BBBBBBB, tBBBBBBBBBt ,BBBBBBB  BBBBBBBBBBBBBBBBe",
" BBBBBBBBBemBBBjBBBseBBB BBBBBBleBBB BBBBeBBBjBBBBBBBeBBBBBBBBBB",
" rBeeee<ee==e1Bj=ee2=eek ieee3e3=3ei keee=ee=jB1ee=ee==eeeeeeeeB",
" reee0e==eeee==%=7e=ee== ==e==eeee== ==e=2e7=%==e0=<eee0=e=qeeee",
" qe===========  =======O #=========# O=======  ===============e=",
"                                                                ",
" BBBBMB+BBBBeBBBB:BBeBBBBBeBBwBBBzBBBBB,BbBBBBBnBB BBBByBBBBBBBB",
" BBNeeB+BueueeBeB:BseeBeehezBwBeBeehefB,BeeseeBeeB BeyeeeNeBBeBB",
" rBe=ee.=ee<=ee9eo=ee7e=e3ee=#eee=ee=e=Oee=e=1e1e0 <ee=<eqeeeeeB",
" ree=0=.=0==e1ee=o=7ee=7e3=3=#=3=3e3e7=O=ee7=ee=e= =e==e=ee=eeee",
" q=====  ========  =========  ========  =========* .==========e=",
"                                                                ",
" BBNBBBBBmBuBB BBBBBeBBBB5BBBBeBBhBtBBBBBbBBBBB;BBBmBBeBBBBBBBBB",
" BBrBBeMeeBeeB BebeeeeBeB5BheleleeBtBxexeeeseaB;BeBeeMeyBBBeBBBB",
" ree===<=eee== ==ee2=ee2=@==e=eee4=#==eee=eee==X=<=<eee<eee-eeeB",
" Ne-=======<== ==7====e==@======e==#===7===2===X=====<======eeee",
"                                                                ",
" NBBBBBB  BBBBBBBBB: pBBBBBBBw wBBBBBBBBB  BBBBBBBB  BBBBBBBBBBe",
" BeeeyeMBcBeBeeaeeeb fefeeBeeB BeheeBeeeegBeBeeaeeBcBMeMereeeBBB",
" reeeee=Bc=0eeeeee=e eeee4ee=d d=eeeeee7e>eeee=ee0=cB=eeeeeeeeeB",
" qe=====  =========o $=======# #=========  ========  =========e=",
"                                                                ",
" BBBBBBBBBemBBBjBBBseBBB BBBBBBleBBB BBBBeBBBjBBBBBBBeBBBBBBBBBB",
" BeeBeBeeueeBnBjBbeeexeB BezeeBeeheB BexeeebBjBnemeueeeMBNBNBeBB",
" reee0e==eeee==%=7e=ee== ==e==eeee== ==e=2e7=%==e0=<eee0=e=qeeee",
" Nee=======e===%======== =======e4== ========%=======<e======eee",
"                                                                ",
" NBBBBB  BBBBBBBB  BBBBBBBBB  BBBBBBBB  BBBBBBBBBc &BBBBBBBBBBBe",
" BBNeeB+BueueeBeB:BseeBeehezBwBeBeehefB,BeeseeBeeB BeyeeeNeBBeBB",
" Be-eee+Beee=e=ee:Be=eeee4eeBweee4e4eeB,e7eeee=eeu meee<e-ereBBB",
" ree=0=.=0==e1ee=o=7ee=7e3=3=#=3=3e3e7=O=ee7=ee=e= =e==e=ee=eeee",
" Ne-===.=======1=o==e===e====#======e==O=2===1==== ======-===eee",
"                                                                ",
" NBBBBBBBBBBB; jBBBBBBBBB  BBBBBBBB  BBBBBBBBB  BBBBBBBBBBBBBBBe",
" BBrBBeMeeBeeB BebeeeeBeB5BheleleeBtBxexeeeseaB;BeBeeMeyBBBeBBBB",
" BeN=6eeee=eev 8eeee=2ee=5B4eee3ee=tB2eee7e2e9B;=eeee<eeBreeeeBB",
" Ne-=======<== ==7====e==@======e==#===7===2===X=====<======eeee",
" q===========X %=========  ========  =========  ==============e=",
" NBBBBBB  BBBBBBBBB: pBBBBBBBw wBBBBBBBBB  BBBBBBBB  BBBBBBBBBBe",
" BBrBBBBBcBBBaBBeBBB BBBBzBBBB BBBBhBxBBBgBBBBeBBBBcBBBBeBBrBBBB",
" reeeee=Bc=0eeeeee=e eeee4ee=d d=eeeeee7e>eeee=ee0=cB=eeeeeeeeeB",
" Ne-=====*===9e===== ========= ====e=====%=========*====eq===eee",
"                                                                ",
" NBBBBBBBBBBBB  BBBBBBB, tBBBBBBBBBt ,BBBBBBB  BBBBBBBBBBBBBBBBe",
" BeeBeBeeueeBnBjBbeeexeB BezeeBeeheB BexeeebBjBnemeueeeMBNBNBeBB",
" rBeeee<ee==e1Bj=ee2=eek ieee3e3=3ei keee=ee=jB1ee=ee=eeeeeeeeeB",
" Nee=======e===%======== =======e4== ========%=======<e======eee",
" qe===========  =======O #=========# O=======  ===============e=",
" NBBBBB  BBBBBBBB  BBBBBBBBB  BBBBBBBB  BBBBBBBBBc &BBBBBBBBBBBe",
" BBBBMB+BBBBeBBBB:BBeBBBBBeBBwBBBzBBBBB,BbBBBBBnBB BBBByBBBBBBBB",
" Be-eee+Beee=e=ee:Be=eeee4eeBweee4e4eeB,e7eeee=eeu meee<e-ereBBB",
" rBe=ee.=ee<=ee9eo=ee7e=e3ee=#eee=ee=e=Oee=e=1e1e0 <ee=<eqeeeeeB",
" Ne-===.=======1=o==e===e====#======e==O=2===1==== ======-===eee",
" q=====  ========  =========  ========  =========* .==========e=",
" NBBBBBBBBBBB; jBBBBBBBBB  BBBBBBBB  BBBBBBBBB  BBBBBBBBBBBBBBBe",
" BBNBBBBBmBuBB BBBBBeBBBB5BBBBeBBhBtBBBBBbBBBBB;BBBmBBeBBBBBBBBB",
" reN=6eeee=eev 8eeee=2ee=5B4eee3ee=tB2eee7e2e9B;=eeee<eeereeeeBB",
" eee===<=eee== ==ee2=ee2=@==e=eee4=#==eee=eee==X=<=<eee=e-e-eeee",
"                                                                "
};
